SplineFontDB: 3.2
FontName: SingScript.sg_misctech
FullName: SingScript.sg "misctech" module
FamilyName: SingScript.sg
Weight: Regular
Copyright: Copyright (c) 2025, 05524F.sg (Singapore)
Version: v2
ItalicAngle: 0
UnderlinePosition: -100
UnderlineWidth: 67
Ascent: 600
Descent: 300
InvalidEm: 0
sfntRevision: 0x00010000
LayerCount: 2
Layer: 0 0 "Back" 1
Layer: 1 0 "Fore" 0
XUID: [1021 768 647112374 32286]
StyleMap: 0x0040
FSType: 0
OS2Version: 4
OS2_WeightWidthSlopeOnly: 0
OS2_UseTypoMetrics: 1
CreationTime: 1740441635
ModificationTime: 1753830558
PfmFamily: 65
TTFWeight: 400
TTFWidth: 5
LineGap: 81
VLineGap: 0
Panose: 3 0 5 3 0 0 0 0 0 0
OS2TypoAscent: 600
OS2TypoAOffset: 0
OS2TypoDescent: -300
OS2TypoDOffset: 0
OS2TypoLinegap: 81
OS2WinAscent: 590
OS2WinAOffset: 0
OS2WinDescent: 233
OS2WinDOffset: 0
HheadAscent: 590
HheadAOffset: 0
HheadDescent: -233
HheadDOffset: 0
OS2SubXSize: 585
OS2SubYSize: 630
OS2SubXOff: 0
OS2SubYOff: 126
OS2SupXSize: 585
OS2SupYSize: 630
OS2SupXOff: 0
OS2SupYOff: 432
OS2StrikeYSize: 44
OS2StrikeYPos: 232
OS2CapHeight: 467
OS2XHeight: 300
OS2Vendor: '5524'
OS2CodePages: 00000001.00000000
OS2UnicodeRanges: 80000003.10000000.00000000.00000000
MarkAttachClasses: 1
DEI: 91125
LangName: 1033 "" "" "" "" "" "Version v2"
Encoding: Custom
UnicodeInterp: none
NameList: AGL For New Fonts
DisplaySize: -48
AntiAlias: 1
FitToEm: 0
WidthSeparation: 50
WinInfo: 0 27 9
BeginPrivate: 6
BlueValues 21 [0 0 300 300 467 467]
OtherBlues 11 [-233 -233]
StdHW 4 [67]
StdVW 4 [67]
StemSnapH 33 [52 59 63 67 73 78 86 93 159 167]
StemSnapV 4 [67]
EndPrivate
Grid
0 -50 m 28
 351 -50 549 -50 900 -50 c 1052
0 -83 m 28
 351 -83 549 -83 900 -83 c 1052
0 349 m 28
 349 349 549 349 900 349 c 1052
0 383 m 28
 350 383 549 383 900 383 c 1052
0 -200 m 28
 351 -200 549 -200 900 -200 c 1052
0 -233 m 28
 351 -233 549 -233 900 -233 c 1052
250 211 m 28
 289 211 311 211 350 211 c 1052
250 100 m 28
 289 100 311 100 350 100 c 1052
250 -100 m 28
 289 -100 311 -100 350 -100 c 1052

StartChar: uni2300
Encoding: 0 8960 0
Width: 360
Flags: HW
HStem: -34 67<171.462 233.84> 267 67<110.641 198>
VStem: 25 67<105.565 249.11> 42 76<-123.332 -45.125> 268 67<73.2667 235.312 381.682 440.824>
LayerCount: 2
Fore
SplineSet
198 267 m 1
 119 267 92 250 92 198 c 0
 92 161 103 117 120 88 c 1
 149 153 175 214 198 267 c 1
259 236 m 1
 259 235 237 186 215 137 c 0
 193 88 171 39 171 38 c 0
 178 35 186 33 193 33 c 0
 238 33 268 88 268 171 c 0
 268 198 265 219 259 236 c 1
42 -98 m 0
 42 -88 58 -52 72 -22 c 0
 79 -6 86 9 89 17 c 1
 49 61 25 129 25 198 c 0
 25 287 71 326 182 333 c 0
 183 333 183 334 184 334 c 0
 185 334 185 334 186 334 c 2
 200 334 l 2
 203 334 203 334 226 332 c 2
 227 332 l 1
 236 353 243 369 249 383 c 0
 256 399 261 412 267 426 c 0
 272 438 284 446 298 446 c 0
 316 446 332 430 332 412 c 0
 332 405 332 405 289 306 c 1
 320 280 335 236 335 171 c 0
 335 48 278 -34 193 -34 c 0
 175 -34 160 -31 145 -23 c 1
 142 -31 128 -61 118 -85 c 0
 113 -96 109 -106 107 -111 c 0
 103 -123 89 -132 76 -132 c 0
 58 -132 42 -116 42 -98 c 0
EndSplineSet
EndChar

StartChar: uni2301
Encoding: 1 8961 1
Width: 363
VWidth: 0
Flags: HW
LayerCount: 2
Fore
SplineSet
39.9482421875 138.106445312 m 0
 39.9482421875 138.422851562 25 146.732421875 25 166.001953125 c 0
 25 184.490234375 40.009765625 199.5 58.498046875 199.5 c 0
 70.19921875 199.5 78.7763671875 195.912109375 126.7734375 154.7421875 c 0
 135.8359375 146.96875 144.030273438 140.0234375 150.625 135.029296875 c 1
 151.395507812 140.33203125 152.06640625 146.500976562 152.732421875 152.913085938 c 0
 153.979492188 164.919921875 154.796875 177.399414062 159.09375 190.892578125 c 0
 162.389648438 201.24609375 173.118164062 225.543945312 201.202148438 225.543945312 c 0
 231.395507812 225.543945312 298.188476562 178.83984375 326.471679688 154.27734375 c 0
 333.544921875 148.134765625 338.021484375 139.076171875 338.021484375 128.981445312 c 0
 338.021484375 110.49609375 323.012695312 95.4873046875 304.52734375 95.4873046875 c 0
 296.13671875 95.4873046875 288.461914062 98.5791015625 282.547851562 103.69921875 c 0
 263.231445312 120.474609375 237.283203125 137.76171875 219.556640625 147.66015625 c 1
 216.384765625 118.567382812 215.759765625 112.827148438 210.84765625 99.01171875 c 0
 206.704101562 87.357421875 193.553710938 60.16796875 161.046875 60.16796875 c 0
 134.717773438 60.16796875 114.282226562 77.201171875 83.1884765625 103.872070312 c 0
 68.958984375 116.077148438 54.3037109375 128.536132812 39.9482421875 138.106445312 c 0
EndSplineSet
EndChar

StartChar: house
Encoding: 2 8962 2
Width: 332
VWidth: 0
Flags: HW
LayerCount: 2
Fore
SplineSet
171.974609375 66.72265625 m 0
 190.212890625 66.72265625 208.27734375 66.994140625 222.299804688 67.40625 c 1
 223.795898438 130.780273438 240.139648438 221.978515625 240.139648438 264.57421875 c 0
 240.139648438 268.354492188 239.977539062 271.547851562 239.772460938 273.828125 c 0
 229.18359375 293.063476562 197.120117188 334.326171875 175.21484375 370.961914062 c 1
 174.419921875 369.98828125 119.94921875 302.78125 100.133789062 270.143554688 c 1
 98.27734375 255.791992188 93.6611328125 189.126953125 92.21484375 68.1279296875 c 1
 113.544921875 67.423828125 144.455078125 66.72265625 171.974609375 66.72265625 c 0
289.180664062 57.6513671875 m 0
 289.180664062 47.904296875 290.000976562 37.1826171875 290.000976562 36.9755859375 c 0
 290.000976562 34.720703125 289.405273438 11.7421875 265.322265625 4.2373046875 c 0
 253.704101562 0.6171875 222.0390625 -0.27734375 171.974609375 -0.27734375 c 0
 146.147460938 -0.27734375 66.6416015625 0.05078125 50.96484375 4.109375 c 0
 47.046875 5.1240234375 25 11.9453125 25 37 c 0
 25 39.4306640625 26.3349609375 228.766601562 33.814453125 279.879882812 c 0
 36.2421875 296.471679688 39.3486328125 301.87890625 62.2529296875 333.7890625 c 0
 66.416015625 339.58984375 143.400390625 444.616210938 166.059570312 459.998046875 c 0
 175.02734375 466.084960938 182.481445312 466.3359375 186.108398438 466.3359375 c 0
 203.474609375 466.3359375 220.021484375 452.515625 220.021484375 432.280273438 c 0
 220.021484375 431.73828125 220.009765625 431.227539062 219.990234375 430.745117188 c 0
 228.89453125 402.26953125 287.03515625 329.645507812 300.502929688 302.2890625 c 0
 303.819335938 295.552734375 307.139648438 288.807617188 307.139648438 264.57421875 c 0
 307.139648438 212.168945312 289.180664062 117.1328125 289.180664062 57.6513671875 c 0
EndSplineSet
EndChar

StartChar: uni2303
Encoding: 3 8963 3
Width: 311
VWidth: 0
Flags: HW
LayerCount: 2
Fore
SplineSet
58.494140625 132.490234375 m 0
 40.0078125 132.490234375 25 147.499023438 25 165.984375 c 0
 25 175.95703125 29.3671875 184.916992188 36.3154296875 191.075195312 c 0
 65.9345703125 217.329101562 92.2861328125 255.537109375 122.5703125 279.348632812 c 0
 136.086914062 289.975585938 153.233398438 300.5 175.520507812 300.5 c 0
 223.048828125 300.5 238.786132812 257.150390625 247.08984375 237.889648438 c 0
 255.119140625 219.264648438 262.759765625 202.443359375 276.4765625 188.407226562 c 0
 282.37890625 182.368164062 286.018554688 174.108398438 286.018554688 165.004882812 c 0
 286.018554688 146.518554688 271.010742188 131.510742188 252.525390625 131.510742188 c 0
 243.143554688 131.510742188 234.657226562 135.376953125 228.568359375 141.587890625 c 0
 204.728515625 165.982421875 193.502929688 192.924804688 185.532226562 211.4140625 c 0
 180.013671875 224.215820312 177.33984375 229.794921875 174.725585938 233.34765625 c 1
 156.607421875 228.068359375 117.079101562 173.146484375 80.7255859375 140.924804688 c 0
 74.783203125 135.673828125 67.0078125 132.490234375 58.494140625 132.490234375 c 0
EndSplineSet
EndChar

StartChar: uni2304
Encoding: 4 8964 4
Width: 291
VWidth: 0
Flags: HW
LayerCount: 2
Fore
SplineSet
35.58984375 117.563476562 m 0
 35.58984375 117.830078125 25 126.137695312 25 142.004882812 c 0
 25 160.490234375 40.0078125 175.498046875 58.4931640625 175.498046875 c 0
 67.345703125 175.498046875 75.3994140625 172.056640625 81.390625 166.440429688 c 0
 101.860351562 147.25 116.127929688 121.444335938 129.208984375 99.3896484375 c 0
 133.201171875 92.6572265625 137.009765625 86.2705078125 140.470703125 80.7236328125 c 1
 142.141601562 83.107421875 143.88671875 85.6357421875 145.661132812 88.2548828125 c 0
 165.233398438 117.142578125 186.71484375 148.427734375 215.904296875 165.107421875 c 0
 220.795898438 167.90234375 226.45703125 169.5 232.489257812 169.5 c 0
 250.979492188 169.5 265.990234375 154.489257812 265.990234375 135.999023438 c 0
 265.990234375 124.041992188 259.654296875 112.938476562 249.07421875 106.892578125 c 0
 219.075195312 89.75 191.950195312 24.68359375 163.724609375 6.5947265625 c 0
 158.662109375 3.3505859375 151.134765625 -0.5 140.489257812 -0.5 c 0
 110.556640625 -0.5 93.8779296875 27.6201171875 71.5400390625 65.2822265625 c 0
 58.5546875 87.1748046875 44.388671875 109.30859375 35.58984375 117.563476562 c 0
EndSplineSet
EndChar

StartChar: uni2305
Encoding: 5 8965 5
Width: 306
VWidth: 0
Flags: HW
LayerCount: 2
Fore
SplineSet
74.5 227.498046875 m 0
 56.009765625 227.498046875 40.9990234375 242.508789062 40.9990234375 260.999023438 c 0
 40.9990234375 278.716796875 54.783203125 293.241210938 72.2041015625 294.422851562 c 0
 129.180664062 298.28515625 174.268554688 296.698242188 229.262695312 300.426757812 c 0
 230.021484375 300.477539062 230.786132812 300.50390625 231.557617188 300.50390625 c 0
 250.047851562 300.50390625 265.059570312 285.4921875 265.059570312 267.002929688 c 0
 265.059570312 249.284179688 251.274414062 234.760742188 233.794921875 233.577148438 c 0
 176.819335938 229.71484375 131.73046875 231.301757812 76.736328125 227.573242188 c 0
 76.0361328125 227.5234375 75.271484375 227.498046875 74.5 227.498046875 c 0
86.5927734375 14.7548828125 m 0
 86.2734375 14.7548828125 77.9931640625 -0.4970703125 58.498046875 -0.4970703125 c 0
 40.009765625 -0.4970703125 25 14.5126953125 25 33.0009765625 c 0
 25 39.728515625 26.9873046875 45.9951171875 30.40625 51.2451171875 c 0
 48.0205078125 78.2958984375 72.291015625 105.821289062 93.1875 126.313476562 c 0
 127.8203125 160.275390625 139.345703125 161.516601562 150.454101562 161.516601562 c 0
 202.991210938 161.516601562 252.01171875 94.39453125 276.885742188 49.0869140625 c 0
 279.5078125 44.310546875 281 38.828125 281 32.9990234375 c 0
 281 14.509765625 265.98828125 -0.501953125 247.498046875 -0.501953125 c 0
 235.333007812 -0.501953125 224.07421875 6.0556640625 218.11328125 16.9130859375 c 0
 212.974609375 26.2724609375 185.303710938 74.84765625 155.32421875 92.1796875 c 1
 125.264648438 66.8466796875 97.9912109375 32.2587890625 86.5927734375 14.7548828125 c 0
EndSplineSet
EndChar

StartChar: uni2306
Encoding: 6 8966 6
Width: 306
VWidth: 0
Flags: HW
LayerCount: 2
Fore
SplineSet
75.5 179 m 0
 57.009765625 179 41.9990234375 194.01171875 41.9990234375 212.500976562 c 0
 41.9990234375 230.219726562 55.783203125 244.744140625 73.205078125 245.924804688 c 0
 130.180664062 249.788085938 175.268554688 248.200195312 230.262695312 251.928710938 c 0
 231.021484375 251.98046875 231.787109375 252.006835938 232.557617188 252.006835938 c 0
 251.047851562 252.006835938 266.059570312 236.995117188 266.059570312 218.504882812 c 0
 266.059570312 200.787109375 252.274414062 186.262695312 234.794921875 185.080078125 c 0
 177.819335938 181.217773438 132.73046875 182.8046875 77.736328125 179.076171875 c 0
 77.0361328125 179.026367188 76.271484375 179 75.5 179 c 0
86.5927734375 14.7548828125 m 0
 86.2734375 14.7548828125 77.9931640625 -0.4970703125 58.498046875 -0.4970703125 c 0
 40.009765625 -0.4970703125 25 14.5126953125 25 33.0009765625 c 0
 25 39.728515625 26.9873046875 45.9951171875 30.40625 51.2451171875 c 0
 48.0205078125 78.2958984375 72.291015625 105.821289062 93.1875 126.313476562 c 0
 127.8203125 160.275390625 139.345703125 161.516601562 150.454101562 161.516601562 c 0
 202.991210938 161.516601562 252.01171875 94.39453125 276.885742188 49.0869140625 c 0
 279.5078125 44.310546875 281 38.828125 281 32.9990234375 c 0
 281 14.509765625 265.98828125 -0.501953125 247.498046875 -0.501953125 c 0
 235.333007812 -0.501953125 224.07421875 6.0556640625 218.11328125 16.9130859375 c 0
 212.974609375 26.2724609375 185.303710938 74.84765625 155.32421875 92.1796875 c 1
 125.264648438 66.8466796875 97.9912109375 32.2587890625 86.5927734375 14.7548828125 c 0
73.7373046875 276.071289062 m 0
 55.2470703125 276.071289062 40.236328125 291.083007812 40.236328125 309.572265625 c 0
 40.236328125 327.291015625 54.0205078125 341.815429688 71.4423828125 342.99609375 c 0
 128.41796875 346.859375 173.505859375 345.271484375 228.5 349 c 0
 229.258789062 349.051757812 230.024414062 349.078125 230.794921875 349.078125 c 0
 249.28515625 349.078125 264.296875 334.06640625 264.296875 315.576171875 c 0
 264.296875 297.858398438 250.51171875 283.333984375 233.032226562 282.151367188 c 0
 176.056640625 278.2890625 130.967773438 279.875976562 75.9736328125 276.147460938 c 0
 75.2734375 276.09765625 74.5087890625 276.071289062 73.7373046875 276.071289062 c 0
EndSplineSet
EndChar

StartChar: uni2307
Encoding: 7 8967 7
Width: 212
VWidth: 0
Flags: HW
LayerCount: 2
Fore
SplineSet
127.51171875 200.001953125 m 1
 145.1328125 192.3515625 187.025390625 174.161132812 187.025390625 126.814453125 c 0
 187.025390625 105.795898438 174.401367188 90.1171875 163.208007812 81.6611328125 c 0
 139.797851562 63.9736328125 108.01171875 59.3583984375 95.0791015625 48.5322265625 c 1
 97.2783203125 31.552734375 148.169921875 8.07421875 178.403320312 -28.7724609375 c 0
 183.145507812 -34.5517578125 185.993164062 -41.9443359375 185.993164062 -49.9970703125 c 0
 185.993164062 -68.482421875 170.984375 -83.4912109375 152.498046875 -83.4912109375 c 0
 142.064453125 -83.4912109375 132.73828125 -78.7099609375 126.584960938 -71.2275390625 c 0
 109.555664062 -50.47265625 77.681640625 -33.47265625 55.349609375 -10.712890625 c 0
 41.6435546875 3.2568359375 27.994140625 23.505859375 27.994140625 50 c 0
 27.994140625 72.4931640625 40.216796875 90.33984375 53.2021484375 100.873046875 c 0
 69.06640625 113.7421875 85.8828125 119.333984375 99.2421875 124.475585938 c 0
 105.760742188 126.984375 111.504882812 129.424804688 115.747070312 131.393554688 c 1
 101.875976562 139.33203125 85.564453125 142.736328125 69.5146484375 155.889648438 c 0
 59.345703125 164.224609375 47.7294921875 179.595703125 47.7294921875 200.271484375 c 0
 47.7294921875 241.403320312 91.9833984375 251.91796875 101.31640625 265.012695312 c 0
 103.07421875 267.478515625 104.978515625 270.748046875 104.994140625 279.887695312 c 1
 90.0087890625 291.36328125 60.2490234375 299.077148438 34.4462890625 325.686523438 c 0
 28.6025390625 331.732421875 25 339.954101562 25 349.009765625 c 0
 25 367.49609375 40.0078125 382.50390625 58.4931640625 382.50390625 c 0
 67.9228515625 382.50390625 76.447265625 378.598632812 82.5419921875 372.313476562 c 0
 90.5927734375 364.01171875 101.817382812 357.915039062 115.841796875 350.887695312 c 0
 132.858398438 342.360351562 171.994140625 325.040039062 171.994140625 280 c 0
 171.994140625 229.024414062 138.58984375 207.071289062 127.51171875 200.001953125 c 1
EndSplineSet
EndChar

StartChar: uni2308
Encoding: 8 8968 8
Width: 238
VWidth: 0
Flags: HW
LayerCount: 2
Fore
SplineSet
92 119.318359375 m 0
 92 73.9599609375 93.6220703125 33.86328125 93.6220703125 33 c 0
 93.6220703125 14.5107421875 78.6103515625 -0.5 60.12109375 -0.5 c 0
 42.041015625 -0.5 27.2861328125 13.8544921875 26.642578125 31.779296875 c 0
 25.484375 64.0546875 25 92.962890625 25 119.318359375 c 0
 25 248.76953125 36.6611328125 315.053710938 36.6611328125 418.298828125 c 0
 36.6611328125 424.389648438 36.62109375 428.563476562 36.62109375 429.014648438 c 0
 36.62109375 431.145507812 37.248046875 460.491210938 71.6669921875 465.58203125 c 0
 77.634765625 466.46484375 82.9697265625 466.59765625 88.7939453125 466.59765625 c 0
 113.418945312 466.59765625 151.938476562 462.5 179.12109375 462.5 c 0
 197.610351562 462.5 212.62109375 447.489257812 212.62109375 429 c 0
 212.62109375 410.510742188 197.610351562 395.5 179.12109375 395.5 c 0
 158.670898438 395.5 104.290039062 399.115234375 103.534179688 399.151367188 c 1
 102.245117188 301.7890625 92 239.974609375 92 119.318359375 c 0
EndSplineSet
EndChar

StartChar: uni2309
Encoding: 9 8969 9
Width: 240
VWidth: 0
Flags: HW
LayerCount: 2
Fore
SplineSet
58.494140625 376.479492188 m 0
 40.0087890625 376.479492188 25 391.48828125 25 409.974609375 c 0
 25 424.694335938 32.857421875 451.481445312 116.614257812 462.280273438 c 0
 149.346679688 466.5 180.534179688 466.5 180.534179688 466.5 c 2
 198.361328125 466.5 213.09765625 452.485351562 213.978515625 434.694335938 c 0
 214.368164062 426.817382812 214.561523438 419.045898438 214.561523438 411.24609375 c 0
 214.561523438 313.587890625 186.389648438 217.109375 179.0078125 31.6474609375 c 0
 178.296875 13.7841796875 163.5703125 -0.5 145.534179688 -0.5 c 0
 127.044921875 -0.5 112.033203125 14.5107421875 112.033203125 33 c 0
 112.033203125 33.453125 112.04296875 33.904296875 112.061523438 34.3525390625 c 0
 119.125 211.828125 144.864257812 311.83984375 147.366210938 398.067382812 c 1
 123.817382812 396.265625 95.1015625 392.399414062 79.7763671875 384.102539062 c 0
 73.951171875 379.33203125 66.5537109375 376.479492188 58.494140625 376.479492188 c 0
EndSplineSet
EndChar

StartChar: uni230A
Encoding: 10 8970 10
Width: 247
VWidth: 0
Flags: HW
LayerCount: 2
Fore
SplineSet
58.5185546875 -0.533203125 m 0
 40.0869140625 -0.533203125 25 14.4287109375 25 33.0068359375 c 0
 25 61.7607421875 48.259765625 193.727539062 48.259765625 293.66796875 c 0
 48.259765625 337.64453125 44.3955078125 381.733398438 33.923828125 425.161132812 c 0
 33.310546875 427.65234375 32.9873046875 430.288085938 32.9873046875 432.999023438 c 0
 32.9873046875 451.491210938 48.0009765625 466.504882812 66.494140625 466.504882812 c 0
 82.275390625 466.504882812 95.5234375 455.5703125 99.068359375 440.870117188 c 0
 111.065429688 391.1171875 115.259765625 341.62109375 115.259765625 293.66796875 c 0
 115.259765625 228.607421875 107.594726562 166.37109375 100.678710938 109.647460938 c 0
 99.0556640625 96.3349609375 97.4716796875 83.328125 96.0263671875 70.67578125 c 1
 116.313476562 72.494140625 140.814453125 74.1796875 161.923828125 74.1796875 c 0
 173.512695312 74.1796875 184.079101562 73.802734375 194.3515625 71.9892578125 c 0
 210.056640625 69.2177734375 222.00390625 55.4912109375 222.00390625 38.9951171875 c 0
 222.00390625 20.50390625 206.990234375 5.4912109375 188.499023438 5.4912109375 c 0
 186.502929688 5.4912109375 184.546875 5.666015625 182.706054688 6 c 2
 182.647460938 6.0107421875 l 2
 179.3203125 6.59765625 171.327148438 7.1796875 161.923828125 7.1796875 c 0
 122.975585938 7.1796875 62.7236328125 -0.2724609375 62.7236328125 -0.2724609375 c 2
 61.8466796875 -0.3818359375 60.3681640625 -0.533203125 58.5185546875 -0.533203125 c 0
EndSplineSet
EndChar

StartChar: uni230B
Encoding: 11 8971 11
Width: 260
VWidth: 0
Flags: HW
LayerCount: 2
Fore
SplineSet
168.4453125 320.517578125 m 0
 168.4453125 378.186523438 167.002929688 431.875 167.002929688 433 c 0
 167.002929688 451.489257812 182.014648438 466.5 200.50390625 466.5 c 0
 218.723632812 466.5 233.56640625 451.922851562 233.994140625 433.8046875 c 0
 234.8359375 398.158203125 235.4453125 359.71484375 235.4453125 320.517578125 c 0
 235.4453125 219.20703125 231.655273438 113.4453125 216.377929688 35.52734375 c 0
 210.479492188 5.447265625 176.609375 -0.3115234375 132.282226562 -0.3115234375 c 0
 40.2705078125 -0.3115234375 29.984375 25.4775390625 26.2177734375 39.0380859375 c 0
 25.423828125 41.8955078125 25 44.9052734375 25 48.013671875 c 0
 25 66.5068359375 40.013671875 81.5205078125 58.5068359375 81.5205078125 c 0
 67.8251953125 81.5205078125 76.2607421875 77.7080078125 82.3349609375 71.5556640625 c 0
 88.8525390625 69.8310546875 104.541015625 66.6884765625 132.282226562 66.6884765625 c 0
 140.114257812 66.6884765625 147.844726562 67.13671875 154.02734375 67.6982421875 c 1
 164.908203125 135.993164062 168.4453125 230.065429688 168.4453125 320.517578125 c 0
EndSplineSet
EndChar

StartChar: uni230C
Encoding: 12 8972 12
Width: 900
VWidth: 0
Flags: HW
LayerCount: 2
Fore
SplineSet
600 -32 m 6
 600 -13.6953125 614.862304688 1.47265625 633.529296875 1.47265625 c 6
 866.5 1.5 l 6
 884.989257812 1.5 900 -13.5107421875 900 -32 c 4
 900 -50.4892578125 884.989257812 -65.5 866.5 -65.5 c 6
 667 -65.5 l 5
 667 -266 l 6
 667 -284.489257812 651.989257812 -299.5 633.5 -299.5 c 4
 615.010742188 -299.5 600 -284.489257812 600 -266 c 6
 600 -32 l 6
EndSplineSet
EndChar

StartChar: uni230D
Encoding: 13 8973 13
Width: 900
VWidth: 0
Flags: HW
LayerCount: 2
Fore
SplineSet
266.5 1.5 m 6
 284.989257812 1.5 299.985351562 -13.47265625 299.985351562 -32.001953125 c 6
 300 -266 l 6
 300 -284.489257812 284.989257812 -299.5 266.5 -299.5 c 4
 248.010742188 -299.5 233 -284.489257812 233 -266 c 6
 233 -65.5 l 5
 33.5 -65.5 l 6
 15.0107421875 -65.5 0 -50.4892578125 0 -32 c 4
 0 -13.5107421875 15.0107421875 1.5 33.5 1.5 c 6
 266.5 1.5 l 6
EndSplineSet
EndChar

StartChar: uni230E
Encoding: 14 8974 14
Width: 900
VWidth: 0
Flags: HW
LayerCount: 2
Fore
SplineSet
633.532226562 298.521484375 m 6
 615.038085938 298.521484375 600 313.546875 600 332 c 6
 600 566 l 6
 600 584.489257812 615.010742188 599.5 633.5 599.5 c 4
 651.989257812 599.5 667 584.489257812 667 566 c 6
 667 365.5 l 5
 866.5 365.5 l 6
 884.989257812 365.5 900 350.489257812 900 332 c 4
 900 313.510742188 884.989257812 298.5 866.5 298.5 c 6
 633.532226562 298.521484375 l 6
EndSplineSet
EndChar

StartChar: uni230F
Encoding: 15 8975 15
Width: 900
VWidth: 0
Flags: HW
LayerCount: 2
Fore
SplineSet
300 332 m 2
 300 313.516601562 284.93359375 298.512695312 266.475585938 298.512695312 c 2
 33.5 298.5 l 2
 15.0107421875 298.5 0 313.510742188 0 332 c 0
 0 350.489257812 15.0107421875 365.5 33.5 365.5 c 2
 233 365.5 l 1
 233 566 l 2
 233 584.489257812 248.010742188 599.5 266.5 599.5 c 0
 284.989257812 599.5 300 584.489257812 300 566 c 2
 300 332 l 2
EndSplineSet
EndChar

StartChar: revlogicalnot
Encoding: 16 8976 16
Width: 342
Flags: HW
HStem: 143 68<87 305>
VStem: 18 69<58 143>
LayerCount: 2
Fore
SplineSet
97 101 m 0
 97 110 97 116 96 122 c 0
 95 128 94 133 94 142 c 2
 94 146 l 2
 94 147 94 147 94 148 c 0
 94 149 93 150 93 151 c 2
 93 159 l 1
 110 159 l 2
 112 159 114 160 116 160 c 0
 118 160 119 160 121 160 c 2
 132 160 l 2
 139 160 149 160 170 159 c 0
 190 159 220 158 267 157 c 2
 283 157 l 2
 301 157 317 173 317 191 c 0
 317 209 301 224 283 224 c 2
 267 224 l 2
 220 225 190 226 170 226 c 0
 149 227 139 227 132 227 c 0
 40 227 25 219 25 172 c 0
 25 155 26 145 27 136 c 0
 28 127 29 118 29 101 c 0
 29 83 45 68 63 68 c 0
 81 68 97 83 97 101 c 0
EndSplineSet
EndChar

StartChar: uni2311
Encoding: 17 8977 17
Width: 401
VWidth: 0
Flags: HW
HStem: 116 68<-29.443 82.8654 318.338 430.612>
VStem: 167.264 67<-80.5146 31.7249 267.182 379.515>
LayerCount: 2
Fore
SplineSet
150.264648438 203 m 1
 158.264648438 169 157.264648438 134 147.264648438 99 c 1
 181.264648438 107 216.264648438 106 251.264648438 96 c 1
 243.264648438 130 244.264648438 165 254.264648438 200 c 1
 220.264648438 192 185.264648438 193 150.264648438 203 c 1
83.2646484375 314 m 0
 153.264648438 245 248.264648438 245 317.264648438 314 c 1
 318.264648438 314 l 1
 317.264648438 315 l 1
 330.264648438 328 352.264648438 328 365.264648438 315 c 0
 378.264648438 302 379.264648438 281 366.264648438 268 c 2
 365.264648438 267 l 2
 296.264648438 197 296.264648438 101 365.264648438 32 c 0
 378.264648438 19 378.264648438 -3 365.264648438 -16 c 0
 352.264648438 -29 331.264648438 -28 318.264648438 -15 c 0
 249.264648438 54 152.264648438 54 82.2646484375 -16 c 0
 69.2646484375 -29 48.2646484375 -28 35.2646484375 -15 c 0
 22.2646484375 -2 21.2646484375 19 34.2646484375 32 c 2
 35.2646484375 33 l 2
 104.264648438 104 105.264648438 197 36.2646484375 266 c 1
 36.2646484375 267 l 1
 23.2646484375 280 22.2646484375 301 35.2646484375 314 c 0
 48.2646484375 327 70.2646484375 327 83.2646484375 314 c 0
EndSplineSet
EndChar

StartChar: uni2312
Encoding: 18 8978 18
Width: 449
VWidth: 0
Flags: HW
LayerCount: 2
Fore
SplineSet
234.51171875 233.5 m 0
 142.543945312 233.5 92 106.165039062 92 35.107421875 c 0
 92 34.529296875 92.009765625 33.9560546875 92.009765625 33.3876953125 c 0
 92.009765625 33.2587890625 92.01171875 33.1298828125 92.01171875 33 c 0
 92.01171875 14.5107421875 77.0009765625 -0.5 58.51171875 -0.5 c 0
 47.888671875 -0.5 25 6.5048828125 25 35.107421875 c 0
 25 141.870117188 99.802734375 300.5 234.51171875 300.5 c 0
 363.709960938 300.5 424.01171875 156.375 424.01171875 33 c 0
 424.01171875 14.5107421875 409.000976562 -0.5 390.51171875 -0.5 c 0
 372.022460938 -0.5 357.01171875 14.5107421875 357.01171875 33 c 0
 357.01171875 42.556640625 355.745117188 147.6640625 300.659179688 204.603515625 c 0
 282.779296875 223.084960938 262.115234375 233.5 234.51171875 233.5 c 0
EndSplineSet
EndChar

StartChar: uni2313
Encoding: 19 8979 19
Width: 449
VWidth: 0
Flags: HW
LayerCount: 2
Fore
SplineSet
355.15234375 66.5 m 1
 348.76171875 125.794921875 319.21875 233.5 234.51171875 233.5 c 0
 206.390625 233.5 182.426757812 222.14453125 161.129882812 202.090820312 c 0
 127.791992188 170.698242188 103.119140625 118.16796875 94.7490234375 66.5 c 1
 355.15234375 66.5 l 1
234.51171875 300.5 m 0
 363.709960938 300.5 424.01171875 156.375 424.01171875 33 c 0
 424.01171875 14.5107421875 409.000976562 -0.5 390.51171875 -0.5 c 0
 390.008789062 -0.5 389.508789062 -0.4892578125 389.01171875 -0.466796875 c 0
 388.514648438 -0.4892578125 388.014648438 -0.5 387.51171875 -0.5 c 2
 60.51171875 -0.5 l 2
 60.177734375 -0.5 59.8447265625 -0.4951171875 59.5126953125 -0.4853515625 c 0
 59.1806640625 -0.4951171875 58.8466796875 -0.5 58.51171875 -0.5 c 0
 47.888671875 -0.5 25 6.5048828125 25 35.107421875 c 0
 25 141.870117188 99.802734375 300.5 234.51171875 300.5 c 0
EndSplineSet
EndChar

StartChar: uni2314
Encoding: 20 8980 20
Width: 321
VWidth: 0
Flags: HW
LayerCount: 2
Fore
SplineSet
227.307617188 182.733398438 m 1
 220.633789062 224.08984375 204.408203125 233.5 168.5078125 233.5 c 0
 131.1015625 233.5 111.815429688 225.368164062 95.9970703125 174.206054688 c 1
 127.939453125 149.97265625 149.857421875 120.51953125 164.87109375 96.759765625 c 1
 178.48828125 122.192382812 198.221679688 154.448242188 227.307617188 182.733398438 c 1
25.9306640625 171.834960938 m 2
 41.0771484375 234.9453125 69.5625 300.5 168.5078125 300.5 c 0
 210.274414062 300.5 246.657226562 287.40625 269.318359375 256.615234375 c 0
 286.697265625 233.000976562 293.438476562 204.215820312 295.905273438 172.640625 c 2
 295.905273438 172.578125 l 2
 295.97265625 171.70703125 296.012695312 170.826171875 296.012695312 169.9375 c 0
 296.012695312 150.8359375 280.668945312 141.935546875 280.668945312 140.889648438 c 0
 247.922851562 111.959960938 226.696289062 71.0439453125 212.73046875 43.291015625 c 0
 200.028320312 18.048828125 190.694335938 -0.5 166.5078125 -0.5 c 0
 143.905273438 -0.5 134.327148438 16.220703125 122.297851562 37.21875 c 0
 106.920898438 64.0634765625 82.73046875 104.817382812 42.896484375 129.50390625 c 0
 42.896484375 129.557617188 31.3037109375 135.741210938 27.8876953125 150.34765625 c 0
 26.0322265625 154.509765625 25 159.119140625 25 163.966796875 c 0
 25 166.665039062 25.3193359375 169.2890625 25.9228515625 171.803710938 c 2
 25.9306640625 171.834960938 l 2
EndSplineSet
EndChar

StartChar: uni2315
Encoding: 21 8981 21
Width: 386
VWidth: 0
Flags: HW
LayerCount: 2
Fore
SplineSet
103.053710938 56.810546875 m 0
 64.7236328125 104.3984375 55.54296875 162.604492188 55.54296875 190.336914062 c 0
 55.54296875 218.712890625 64.43359375 257.109375 106.463867188 280.107421875 c 0
 133.475585938 294.888671875 167.626953125 300.5 211.541992188 300.5 c 0
 265.086914062 300.5 361.27734375 283.331054688 361.27734375 159.95703125 c 0
 361.27734375 142.587890625 361.27734375 98.8447265625 313.862304688 51.259765625 c 0
 306.969726562 44.3427734375 260.40234375 -0.5 211.541992188 -0.5 c 0
 191.0078125 -0.5 171.771484375 4.8583984375 154.590820312 13.748046875 c 1
 114.461914062 -27.9306640625 106.27734375 -36.431640625 87.029296875 -67.6259765625 c 0
 81.1279296875 -77.1904296875 70.552734375 -83.5703125 58.4990234375 -83.5703125 c 0
 40.0107421875 -83.5703125 25 -68.5595703125 25 -50.0712890625 c 0
 25 -43.6357421875 26.818359375 -37.6220703125 30.01171875 -32.4443359375 c 0
 53.4208984375 5.4951171875 74.78125 27.66796875 97.6494140625 51.234375 c 0
 99.4345703125 53.07421875 101.234375 54.9287109375 103.053710938 56.810546875 c 0
122.54296875 190.336914062 m 0
 122.54296875 140.010742188 160.69921875 66.5 211.541992188 66.5 c 0
 212.177734375 66.5 237.775390625 69.8046875 266.41015625 98.541015625 c 0
 283.029296875 115.219726562 293.299804688 134.69921875 294.078125 151.567382812 c 0
 294.2109375 154.43359375 294.27734375 157.233398438 294.27734375 159.95703125 c 0
 294.27734375 211.939453125 271.521484375 233.5 211.541992188 233.5 c 0
 173.486328125 233.5 150.135742188 227.626953125 138.5546875 221.290039062 c 0
 130.805664062 217.049804688 122.54296875 211.235351562 122.54296875 190.336914062 c 0
EndSplineSet
EndChar

StartChar: uni2316
Encoding: 22 8982 22
Width: 536
VWidth: 0
Flags: HW
LayerCount: 2
Fore
SplineSet
328.252929688 191.33984375 m 1
 327.385742188 201.580078125 325.7578125 209.046875 323.971679688 214.068359375 c 0
 320.90234375 222.703125 318.64453125 228.94140625 293.693359375 231.557617188 c 1
 293.17578125 217.694335938 292.6875 203.379882812 292.211914062 188.6796875 c 1
 304.1796875 189.655273438 316.1640625 190.541992188 328.252929688 191.33984375 c 1
226.62890625 231.44140625 m 1
 204.784179688 226.833984375 190.998046875 216.826171875 190.998046875 185.033203125 c 0
 190.998046875 182.994140625 191.059570312 180.838867188 191.189453125 178.567382812 c 1
 202.62109375 179.889648438 213.857421875 181.142578125 224.967773438 182.323242188 c 1
 225.499023438 199.161132812 226.043945312 215.559570312 226.62890625 231.44140625 c 1
323.323242188 123.883789062 m 1
 312.223632812 123.10546875 301.188476562 122.248046875 290.137695312 121.311523438 c 1
 289.672851562 105.908203125 289.1953125 90.220703125 288.690429688 74.306640625 c 1
 301.508789062 81.23046875 315.461914062 95.34765625 323.323242188 123.883789062 c 1
212.291015625 113.55859375 m 1
 215.456054688 108.225585938 218.859375 103.107421875 222.40625 98.3251953125 c 1
 222.576171875 103.825195312 222.7421875 109.295898438 222.907226562 114.737304688 c 1
 219.38671875 114.3515625 215.848632812 113.958984375 212.291015625 113.55859375 c 1
141.1484375 104.985351562 m 0
 140.322265625 104.880859375 61.1513671875 94.4931640625 58.5029296875 94.4931640625 c 0
 40.0126953125 94.4931640625 25 109.505859375 25 127.997070312 c 0
 25 144.984375 37.669921875 159.03515625 54.0673828125 161.208007812 c 0
 78.8837890625 164.497070312 102.258789062 167.569335938 124.58984375 170.418945312 c 1
 124.196289062 175.401367188 123.998046875 180.268554688 123.998046875 185.033203125 c 0
 123.998046875 214.212890625 132.108398438 258.827148438 176.630859375 283.85546875 c 0
 193.716796875 293.459960938 211.940429688 297.96875 229.650390625 299.78125 c 1
 230.650390625 318.25390625 231.786132812 335.646484375 233.1171875 351.78515625 c 0
 234.537109375 369.038085938 248.954101562 382.565429688 266.506835938 382.565429688 c 0
 284.99609375 382.565429688 300.0078125 367.553710938 300.0078125 349.063476562 c 0
 300.0078125 348.125976562 299.969726562 347.196289062 299.893554688 346.278320312 c 2
 299.888671875 346.21484375 l 2
 298.682617188 331.590820312 297.633789062 315.665039062 296.698242188 298.620117188 c 1
 333.44921875 295.270507812 388.893554688 282.866210938 395.234375 194.775390625 c 0
 396.056640625 194.805664062 444.543945312 196.5 477.510742188 196.5 c 0
 496 196.5 511.010742188 181.489257812 511.010742188 163 c 0
 511.010742188 144.584960938 496.120117188 129.620117188 477.724609375 129.500976562 c 0
 447.501953125 129.3046875 419.475585938 128.685546875 392.665039062 127.647460938 c 1
 388.176757812 99.4365234375 368.379882812 20.451171875 286.22265625 2.7734375 c 1
 285.541015625 -15.1865234375 284.795898438 -33.3173828125 283.967773438 -51.5439453125 c 0
 283.16015625 -69.318359375 268.474609375 -83.5009765625 250.501953125 -83.5009765625 c 0
 232.012695312 -83.5009765625 217.001953125 -68.4892578125 217.001953125 -50 c 0
 217.001953125 -49.482421875 217.013671875 -48.9677734375 217.036132812 -48.501953125 c 2
 217.036132812 -48.4560546875 l 2
 217.9296875 -28.80078125 218.7265625 -9.228515625 219.452148438 10.166015625 c 1
 186.649414062 29.603515625 156.977539062 69.091796875 141.1484375 104.985351562 c 0
EndSplineSet
EndChar

StartChar: uni2317
Encoding: 23 8983 23
Width: 442
Flags: HW
HStem: 0 21G<144 162> 115 67<28.4854 120.051> 266 67<35.4854 66 66.0066 127> 273 68<196 237 306 358> 447 20G<157 175 267 285>
VStem: 120 66<3.12434 34 60 120.521 188 273> 228 67<18.44 129.619> 243 67<346 463.56>
LayerCount: 2
Fore
SplineSet
309 346 m 1
 379 350 379 350 379 350 c 1
 380 350 l 1
 381 351 l 1
 399 351 415 335 415 317 c 0
 415 299 401 285 383 284 c 0
 379 284 379 284 304 279 c 1
 301 204 l 1
 382 211 382 211 383 211 c 0
 401 211 417 195 417 177 c 0
 417 159 403 145 386 144 c 2
 299 136 l 1
 295 47 l 2
 294 29 280 15 262 15 c 0
 244 15 228 30 228 48 c 0
 228 56 229 72 230 89 c 0
 231 106 231 122 231 130 c 1
 190 127 l 1
 186 32 l 2
 185 14 171 0 153 0 c 0
 135 0 120 16 120 34 c 0
 121 37 121 48 121 60 c 0
 122 87 122 111 122 121 c 1
 80 117 65 116 60 115 c 2
 59 115 l 2
 41 115 25 131 25 149 c 0
 25 167 39 181 56 182 c 2
 125 188 l 1
 127 270 l 1
 126 270 102 268 85 267 c 0
 75 266 66 266 66 266 c 2
 48 266 32 282 32 300 c 0
 32 318 46 332 64 333 c 0
 67 333 81 334 96 335 c 0
 111 336 126 337 129 337 c 2
 133 435 l 2
 134 453 148 467 166 467 c 0
 184 467 200 452 200 434 c 0
 199 433 199 430 196 341 c 1
 199 341 199 341 239 343 c 1
 243 435 l 2
 244 453 258 467 276 467 c 0
 294 467 310 452 310 434 c 2
 310 433 l 2
 310 432 310 432 306 346 c 1
 309 346 l 1
192 194 m 1
 234 198 l 1
 237 276 l 1
 225 275 217 275 201 273 c 2
 194 273 l 1
 192 194 l 1
EndSplineSet
EndChar

StartChar: uni2318
Encoding: 24 8984 24
Width: 523
VWidth: 0
Flags: HW
LayerCount: 2
Fore
SplineSet
219.279296875 130.232421875 m 0
 219.279296875 125.09375 219.2109375 119.913085938 219.071289062 114.66796875 c 1
 236.4140625 116.01953125 253.282226562 116.579101562 270.004882812 116.579101562 c 0
 272.01171875 116.579101562 274.016601562 116.571289062 276.01953125 116.556640625 c 0
 277.021484375 136.140625 278.248046875 155.094726562 279.630859375 174.537109375 c 1
 258.647460938 174.833984375 238.463867188 176.375 217.43359375 178.112304688 c 1
 218.608398438 162.213867188 219.279296875 146.518554688 219.279296875 130.232421875 c 0
340.18359375 0.9892578125 m 0
 340.18359375 -3.78125 355.2578125 -16.7041015625 374.953125 -16.7041015625 c 0
 383.782226562 -16.7041015625 392.966796875 -14.3388671875 401.87890625 -8.2783203125 c 0
 426.475585938 8.447265625 430.813476562 23.767578125 430.813476562 30.34765625 c 0
 430.813476562 35.3271484375 428.6015625 41.966796875 417 42.5419921875 c 0
 416.064453125 42.587890625 416.064453125 42.587890625 340.6015625 47.0244140625 c 1
 340.328125 32.62890625 340.18359375 17.40625 340.18359375 0.9892578125 c 0
92 6.423828125 m 0
 92 1.841796875 92.9140625 -4.115234375 95.2998046875 -10.9052734375 c 0
 95.5458984375 -11.607421875 97.4423828125 -16.0693359375 110.274414062 -16.0693359375 c 0
 123.46875 -16.0693359375 137.056640625 -8.625 137.731445312 -4.9375 c 0
 140.397460938 9.6201171875 142.639648438 23.0439453125 144.50390625 35.5693359375 c 1
 131.71875 32.607421875 118.350585938 29.07421875 104.220703125 24.8798828125 c 0
 100.411132812 23.748046875 92 21.251953125 92 6.423828125 c 0
132.50390625 315.416015625 m 0
 120.219726562 315.416015625 92.69921875 288.87890625 92.69921875 260.646484375 c 0
 92.69921875 256.059570312 93.6552734375 252.881835938 94.2255859375 251.526367188 c 2
 94.68359375 251.5 l 2
 111.711914062 251.5 127.466796875 251.111328125 142.163085938 250.489257812 c 1
 134.036132812 314.557617188 134.036132812 314.557617188 133.403320312 315.350585938 c 0
 133.284179688 315.381835938 133.033203125 315.416015625 132.50390625 315.416015625 c 0
403.612304688 270.7109375 m 0
 403.612304688 286.057617188 376.303710938 313.608398438 366.581054688 315.469726562 c 0
 363.364257812 313.763671875 356.047851562 300.244140625 355.1015625 286.645507812 c 0
 354.137695312 272.78125 353.1875 259.735351562 352.264648438 247.321289062 c 1
 362.29296875 249.149414062 372.884765625 251.484375 384.2734375 254.43359375 c 0
 399.478515625 258.37109375 403.612304688 266.563476562 403.612304688 270.7109375 c 0
366.745117188 315.54296875 m 1
 366.9140625 315.56640625 l 1
 366.857421875 315.569335938 366.8125 315.564453125 366.745117188 315.54296875 c 1
94.68359375 184.5 m 0
 55.90625 184.5 25.69921875 213.8984375 25.69921875 260.646484375 c 0
 25.69921875 287.196289062 35.0859375 314.72265625 53.4462890625 337.821289062 c 0
 75.5166015625 365.586914062 103.10546875 382.416015625 132.50390625 382.416015625 c 0
 166.926757812 382.416015625 196.360351562 357.764648438 200.9375 320.073242188 c 0
 203.377929688 299.978515625 210.185546875 246.68359375 210.278320312 245.94140625 c 0
 241.7578125 243.329101562 262.4921875 241.608398438 284.637695312 241.491210938 c 1
 285.809570312 257.064453125 287.025390625 273.540039062 288.264648438 291.354492188 c 0
 291.465820312 337.35546875 321.055664062 382.495117188 366.416015625 382.495117188 c 0
 395.234375 382.495117188 420.04296875 365.075195312 442.34375 338.52734375 c 0
 460.290039062 317.163085938 470.612304688 294.287109375 470.612304688 270.7109375 c 0
 470.612304688 224.307617188 432.7265625 197.756835938 401.092773438 189.56640625 c 0
 381.827148438 184.578125 363.981445312 181.053710938 347.102539062 178.673828125 c 1
 345.489257812 156.590820312 344.081054688 135.633789062 342.963867188 114.0078125 c 0
 343.73828125 113.961914062 397.294921875 110.602539062 420.366210938 109.458007812 c 0
 466.091796875 107.19140625 497.813476562 72.38671875 497.813476562 30.34765625 c 0
 497.813476562 -4.6328125 476.634765625 -38.4609375 439.487304688 -63.7216796875 c 0
 419.01171875 -77.6455078125 396.389648438 -83.7041015625 374.953125 -83.7041015625 c 0
 318.243164062 -83.7041015625 273.18359375 -43.94140625 273.18359375 1 c 0
 273.18359375 18.287109375 273.344726562 34.357421875 273.64453125 49.5693359375 c 1
 272.4296875 49.5751953125 271.216796875 49.5791015625 270.004882812 49.5791015625 c 0
 251.315429688 49.5791015625 232.848632812 48.8779296875 213.704101562 47.0224609375 c 1
 211.252929688 27.5302734375 207.935546875 6.421875 203.635742188 -17.0625 c 0
 196.818359375 -54.291015625 158.401367188 -83.0693359375 110.274414062 -83.0693359375 c 0
 82.13671875 -83.0693359375 45.28515625 -70.7158203125 32.0673828125 -33.0947265625 c 0
 27.482421875 -20.046875 25 -6.818359375 25 6.423828125 c 0
 25 22.45703125 28.7138671875 38.275390625 36.9990234375 52.2646484375 c 0
 47.4677734375 69.939453125 64.8154296875 83.0849609375 85.146484375 89.1201171875 c 0
 108.697265625 96.1123046875 130.733398438 101.477539062 151.697265625 105.530273438 c 1
 152.094726562 114.013671875 152.279296875 122.197265625 152.279296875 130.232421875 c 0
 152.279296875 147.76171875 151.379882812 164.856445312 149.791015625 183.060546875 c 1
 132.96484375 183.930664062 114.8046875 184.5 94.68359375 184.5 c 0
EndSplineSet
EndChar

StartChar: uni2319
Encoding: 25 8985 25
Width: 342
Flags: HW
HStem: 52 68<89 307>
VStem: 20 69<120 205>
LayerCount: 2
Fore
SplineSet
97 197 m 0
 97 188 97 182 96 176 c 0
 95 170 94 165 94 156 c 2
 94 152 l 2
 94 151 94 151 94 150 c 0
 94 149 93 148 93 147 c 2
 93 139 l 1
 110 139 l 2
 112 139 114 138 116 138 c 0
 118 138 119 138 121 138 c 2
 132 138 l 2
 139 138 149 138 170 139 c 0
 190 139 220 140 267 141 c 2
 283 141 l 2
 301 141 317 125 317 107 c 0
 317 89 301 74 283 74 c 2
 267 74 l 2
 220 73 190 72 170 72 c 0
 149 71 139 71 132 71 c 0
 40 71 25 79 25 126 c 0
 25 143 26 153 27 162 c 0
 28 171 29 180 29 197 c 0
 29 215 45 230 63 230 c 0
 81 230 97 215 97 197 c 0
EndSplineSet
EndChar

StartChar: uni231C
Encoding: 26 8988 26
Width: 900
VWidth: 0
Flags: HW
LayerCount: 2
Fore
SplineSet
0 566 m 6
 0 584.3046875 14.8623046875 599.47265625 33.529296875 599.47265625 c 6
 266.5 599.5 l 6
 284.989257812 599.5 300 584.489257812 300 566 c 4
 300 547.510742188 284.989257812 532.5 266.5 532.5 c 6
 67 532.5 l 5
 67 332 l 6
 67 313.510742188 51.9892578125 298.5 33.5 298.5 c 4
 15.0107421875 298.5 0 313.510742188 0 332 c 6
 0 566 l 6
EndSplineSet
EndChar

StartChar: uni231D
Encoding: 27 8989 27
Width: 900
VWidth: 0
Flags: HW
LayerCount: 2
Fore
SplineSet
866.514648438 599.501953125 m 6
 885.00390625 599.501953125 900 584.529296875 900 566 c 6
 900.014648438 332.001953125 l 6
 900.014648438 313.512695312 885.00390625 298.501953125 866.514648438 298.501953125 c 4
 848.025390625 298.501953125 833.014648438 313.512695312 833.014648438 332.001953125 c 6
 833.014648438 532.501953125 l 5
 633.514648438 532.501953125 l 6
 615.025390625 532.501953125 600.014648438 547.512695312 600.014648438 566.001953125 c 4
 600.014648438 584.491210938 615.025390625 599.501953125 633.514648438 599.501953125 c 6
 866.514648438 599.501953125 l 6
EndSplineSet
EndChar

StartChar: uni231E
Encoding: 28 8990 28
Width: 900
VWidth: 0
Flags: HW
LayerCount: 2
Fore
SplineSet
33.5322265625 -299.478515625 m 6
 15.0380859375 -299.478515625 0 -284.453125 0 -266 c 6
 0 -32 l 6
 0 -13.5107421875 15.0107421875 1.5 33.5 1.5 c 4
 51.9892578125 1.5 67 -13.5107421875 67 -32 c 6
 67 -232.5 l 5
 266.5 -232.5 l 6
 284.989257812 -232.5 300 -247.510742188 300 -266 c 4
 300 -284.489257812 284.989257812 -299.5 266.5 -299.5 c 6
 33.5322265625 -299.478515625 l 6
EndSplineSet
EndChar

StartChar: uni231F
Encoding: 29 8991 29
Width: 900
VWidth: 0
Flags: HW
LayerCount: 2
Fore
SplineSet
900 -266 m 6
 900 -284.483398438 884.93359375 -299.487304688 866.475585938 -299.487304688 c 6
 633.5 -299.5 l 6
 615.010742188 -299.5 600 -284.489257812 600 -266 c 4
 600 -247.510742188 615.010742188 -232.5 633.5 -232.5 c 6
 833 -232.5 l 5
 833 -32 l 6
 833 -13.5107421875 848.010742188 1.5 866.5 1.5 c 4
 884.989257812 1.5 900 -13.5107421875 900 -32 c 6
 900 -266 l 6
EndSplineSet
EndChar

StartChar: uni2322
Encoding: 30 8994 30
Width: 395
VWidth: 0
Flags: HW
HStem: 0 21G<49 72 321.5 346> 66 68<142.998 248.445> 166 67<144.162 240.874> 280 20G<43 65.5 307.5 329>
LayerCount: 2
Fore
SplineSet
194 66 m 0
 166 66 146 50 126 33 c 0
 106 16 86 0 58 0 c 0
 40 0 25 15 25 33 c 0
 25 42 29 51 35 57 c 0
 90 111 137 134 194 134 c 0
 255 134 292 117 359 58 c 0
 366 52 370 43 370 33 c 0
 370 15 355 -1 337 -1 c 0
 306 -1 286 16 266 33 c 0
 246 50 225 66 194 66 c 0
EndSplineSet
EndChar

StartChar: uni2323
Encoding: 31 8995 31
Width: 385
VWidth: 0
Flags: HW
HStem: -0 21G<55 78 327.5 352> 66 68<148.998 254.445> 166 67<150.162 246.874> 280 20G<49 71.5 313.5 335>
LayerCount: 2
Fore
SplineSet
202 233 m 0
 227 233 246 250 264 267 c 0
 282 284 301 300 326 300 c 0
 344 300 360 285 360 267 c 0
 360 257 356 249 348 241 c 0
 287 184 253 166 202 166 c 0
 155 166 125 178 71 217 c 0
 56 228 49 233 40 239 c 1
 40 244 37 248 33 253 c 0
 29 258 25 262 25 267 c 0
 25 285 40 300 58 300 c 0
 85 300 108 284 130 267 c 0
 152 250 175 233 202 233 c 0
EndSplineSet
EndChar

StartChar: uni2324
Encoding: 32 8996 32
Width: 627
VWidth: 0
Flags: HW
LayerCount: 2
Fore
SplineSet
178.537109375 -0.5 m 0
 160.051757812 -0.5 145.043945312 14.5078125 145.043945312 32.9931640625 c 0
 145.043945312 42.6357421875 149.126953125 51.33203125 155.669921875 57.45703125 c 0
 280.146484375 173.987304688 302.068359375 185.5 322.553710938 185.5 c 0
 361.9453125 185.5 382.900390625 149.193359375 406.58203125 108.162109375 c 0
 417.228515625 89.716796875 428.463867188 70.3857421875 441.428710938 52.9931640625 c 0
 445.58984375 47.412109375 448.053710938 40.4921875 448.053710938 33.001953125 c 0
 448.053710938 14.515625 433.043945312 -0.4931640625 414.557617188 -0.4931640625 c 0
 403.560546875 -0.4931640625 393.793945312 4.8173828125 387.6796875 13.0068359375 c 0
 358.040039062 52.7666015625 339.12109375 95.775390625 322.994140625 114.749023438 c 1
 297.875976562 96.7587890625 263.3984375 66.5478515625 201.438476562 8.54296875 c 0
 195.427734375 2.9345703125 187.380859375 -0.5 178.537109375 -0.5 c 0
397.03125 267 m 0
 397.03125 285.489257812 412.04296875 300.5 430.532226562 300.5 c 0
 436.805664062 300.5 488.951171875 300.5 572.66015625 290.25 c 0
 589.216796875 288.22265625 602.056640625 274.09765625 602.056640625 256.997070312 c 0
 602.056640625 238.505859375 587.044921875 223.494140625 568.553710938 223.494140625 c 0
 567.1640625 223.494140625 507.405273438 232.043945312 429.911132812 233.505859375 c 0
 411.6953125 233.849609375 397.03125 248.725585938 397.03125 267 c 0
25 267.001953125 m 0
 25 285.4921875 40.01171875 300.502929688 58.5009765625 300.502929688 c 0
 58.9453125 300.502929688 70.103515625 299.7265625 102.880859375 298.8984375 c 0
 136.392578125 298.05078125 169.704101562 297.454101562 204.870117188 288.458007812 c 0
 219.344726562 284.754882812 230.05859375 271.616210938 230.05859375 255.994140625 c 0
 230.05859375 237.500976562 215.044921875 222.487304688 196.552734375 222.487304688 c 0
 193.681640625 222.487304688 190.89453125 222.849609375 188.26171875 223.536132812 c 0
 162.51171875 230.123046875 134.930664062 231.06640625 101.159179688 231.919921875 c 0
 87.2890625 232.270507812 72.46875 232.640625 56.59765625 233.556640625 c 0
 38.9638671875 234.572265625 25 249.168945312 25 267.001953125 c 0
EndSplineSet
EndChar

StartChar: uni2325
Encoding: 33 8997 33
Width: 708
VWidth: 0
Flags: HW
LayerCount: 2
Fore
SplineSet
553.813476562 293.584960938 m 0
 569.514648438 293.584960938 608.989257812 294.5 609.546875 294.5 c 0
 628.036132812 294.5 643.046875 279.489257812 643.046875 261 c 0
 643.046875 242.721679688 628.375976562 227.842773438 610.15625 227.505859375 c 0
 560.436523438 226.584960938 560.436523438 226.584960938 553.813476562 226.584960938 c 0
 525.053710938 226.584960938 496.42578125 228.099609375 460.176757812 233.92578125 c 0
 444.159179688 236.491210938 431.95703125 250.334960938 431.95703125 267.005859375 c 0
 431.95703125 285.497070312 446.969726562 300.509765625 465.4609375 300.509765625 c 0
 475.272460938 300.509765625 496.830078125 293.584960938 553.813476562 293.584960938 c 0
536.932617188 4.4384765625 m 0
 469.939453125 4.4384765625 401.9453125 -0.470703125 397.512695312 -0.470703125 c 0
 383.133789062 -0.470703125 370.173828125 8.8173828125 365.671875 22.60546875 c 1
 365.671875 22.60546875 325.306640625 146.193359375 298.017578125 223.890625 c 1
 292.87890625 223.525390625 286.698242188 223.018554688 279.846679688 222.428710938 c 0
 256.766601562 220.443359375 225.290039062 217.71484375 189.314453125 217.71484375 c 0
 147.319335938 217.71484375 99.0478515625 221.390625 49.8056640625 234.647460938 c 0
 35.515625 238.481445312 25 251.521484375 25 266.998046875 c 0
 25 285.491210938 40.013671875 300.504882812 58.5068359375 300.504882812 c 0
 70.1533203125 300.504882812 106.880859375 284.71484375 189.314453125 284.71484375 c 0
 221.885742188 284.71484375 251.05078125 287.203125 274.038085938 289.180664062 c 0
 288.233398438 290.401367188 299.768554688 291.497070312 310.297851562 291.497070312 c 0
 310.6796875 291.497070312 311.061523438 291.497070312 311.442382812 291.497070312 c 0
 328.358398438 291.497070312 346.833007812 286.397460938 354.055664062 266.3359375 c 0
 374.517578125 209.49609375 406.509765625 112.958984375 421.3359375 67.908203125 c 1
 468.33984375 70.416015625 505.419921875 71.4384765625 536.932617188 71.4384765625 c 0
 583.26171875 71.4384765625 617.504882812 69.1923828125 652.249023438 66.390625 c 0
 669.466796875 65.001953125 683.026367188 50.5712890625 683.026367188 32.998046875 c 0
 683.026367188 14.5087890625 668.014648438 -0.5029296875 649.524414062 -0.5029296875 c 0
 648.397460938 -0.5029296875 596.466796875 4.4384765625 536.932617188 4.4384765625 c 0
EndSplineSet
EndChar

StartChar: uni2326
Encoding: 34 8998 34
Width: 589
VWidth: 0
Flags: HW
LayerCount: 2
Fore
SplineSet
485.819335938 160.565429688 m 1
 453.9921875 184.197265625 411.143554688 211.263671875 375.645507812 232.969726562 c 1
 247.668945312 225.852539062 122.954101562 223.28125 120.640625 223.27734375 c 0
 111.65625 223.264648438 103.840820312 223.353515625 96.9736328125 223.510742188 c 1
 93.5380859375 175.951171875 92.6259765625 129.90234375 92.6259765625 95.208984375 c 0
 92.6259765625 85.1708984375 92.69921875 76.130859375 92.8056640625 68.279296875 c 1
 142.474609375 70.5771484375 190.524414062 71.388671875 233.7890625 71.388671875 c 0
 303.098632812 71.388671875 360.122070312 69.3037109375 391.642578125 67.837890625 c 1
 404.1171875 89.2431640625 427.735351562 110.072265625 458.9921875 136.9140625 c 0
 469.05078125 145.551757812 478.518554688 153.7109375 485.819335938 160.565429688 c 1
298.158203125 74.4873046875 m 0
 286.908203125 74.4873046875 243.331054688 90.34765625 218.09375 102.719726562 c 1
 210.2109375 96.578125 200.912109375 89.6982421875 188.8671875 80.9150390625 c 0
 183.276367188 76.84765625 176.46484375 74.466796875 169.1015625 74.466796875 c 0
 150.614257812 74.466796875 135.60546875 89.4755859375 135.60546875 107.962890625 c 0
 135.60546875 119.086914062 141.040039062 128.952148438 149.452148438 135.084960938 c 0
 152.4921875 137.302734375 155.30859375 139.353515625 157.927734375 141.262695312 c 1
 150.178710938 147.475585938 142.50390625 154.091796875 134.697265625 161.154296875 c 0
 127.9296875 167.294921875 123.669921875 176.15625 123.669921875 186.004882812 c 0
 123.669921875 204.490234375 138.677734375 219.498046875 157.163085938 219.498046875 c 0
 165.80078125 219.498046875 173.678710938 216.221679688 179.62109375 210.845703125 c 0
 190.514648438 200.989257812 200.349609375 192.7578125 210.1328125 185.572265625 c 0
 212.174804688 187.736328125 235.462890625 212.62890625 235.71875 212.901367188 c 0
 241.842773438 219.43359375 250.532226562 223.509765625 260.166015625 223.509765625 c 0
 278.651367188 223.509765625 293.659179688 208.501953125 293.659179688 190.016601562 c 0
 293.659179688 181.165039062 290.217773438 173.110351562 284.599609375 167.098632812 c 0
 284.463867188 166.954101562 273.27734375 155.006835938 271.046875 152.633789062 c 1
 281.858398438 148.416015625 293.962890625 144.282226562 307.875976562 140.06640625 c 0
 321.63671875 135.896484375 331.6640625 123.107421875 331.6640625 107.993164062 c 0
 331.6640625 89.5009765625 316.650390625 74.4873046875 298.158203125 74.4873046875 c 0
25 262.459960938 m 0
 25 289.305664062 52.8388671875 300.534179688 67.171875 300.534179688 c 0
 76.228515625 300.534179688 84.5576171875 296.883789062 90.6435546875 290.897460938 c 1
 98.32421875 290.548828125 108.297851562 290.27734375 120.640625 290.27734375 c 0
 211.58203125 290.27734375 381.508789062 300.5 384.146484375 300.5 c 0
 390.255859375 300.5 396.26953125 298.840820312 401.48828125 295.696289062 c 0
 424.47265625 281.846679688 528.588867188 218.415039062 552.071289062 191.916015625 c 0
 561.75390625 180.989257812 563.672851562 171.993164062 563.672851562 164.237304688 c 0
 563.672851562 138.508789062 539.302734375 117.58203125 502.60546875 86.068359375 c 0
 473.787109375 61.3203125 458.029296875 47.091796875 449.6484375 34.0908203125 c 0
 449.661132812 33.708984375 449.66796875 33.3291015625 449.66796875 32.94921875 c 0
 449.66796875 14.6767578125 434.8203125 -0.5341796875 416.104492188 -0.5341796875 c 0
 415.390625 -0.5341796875 414.680664062 -0.5107421875 413.9765625 -0.4658203125 c 2
 413.9765625 -0.4658203125 338.627929688 4.388671875 233.7890625 4.388671875 c 0
 132.103515625 4.388671875 61.888671875 -0.5 60.1513671875 -0.5 c 0
 42.3271484375 -0.5 27.4404296875 13.5595703125 26.68359375 31.5771484375 c 0
 26.6689453125 31.9287109375 25.6259765625 56.9677734375 25.6259765625 95.208984375 c 0
 25.6259765625 134.529296875 26.7138671875 187.756835938 31.2548828125 242.758789062 c 0
 27.8310546875 247.624023438 25 254.17578125 25 262.459960938 c 0
EndSplineSet
EndChar

StartChar: uni2327
Encoding: 35 8999 35
Width: 475
VWidth: 0
Flags: HW
LayerCount: 2
Fore
SplineSet
120.640625 223.27734375 m 0
 111.65625 223.27734375 103.840820312 223.353515625 96.9736328125 223.510742188 c 1
 93.5380859375 175.951171875 92.6259765625 129.90234375 92.6259765625 95.208984375 c 0
 92.6259765625 85.1708984375 92.69921875 76.130859375 92.8056640625 68.279296875 c 1
 142.474609375 70.5771484375 190.524414062 71.388671875 233.7890625 71.388671875 c 0
 291.975585938 71.388671875 341.502929688 69.9189453125 374.551757812 68.580078125 c 1
 364.620117188 124.408203125 357.390625 192.407226562 353.655273438 231.765625 c 1
 236.672851562 225.459960938 164.845703125 223.27734375 120.640625 223.27734375 c 0
134.697265625 161.154296875 m 0
 134.745117188 161.421875 123.669921875 169.71875 123.669921875 186.004882812 c 0
 123.669921875 204.490234375 138.677734375 219.498046875 157.163085938 219.498046875 c 0
 165.80078125 219.498046875 173.678710938 216.221679688 179.62109375 210.845703125 c 0
 190.514648438 200.989257812 200.349609375 192.7578125 210.1328125 185.572265625 c 0
 212.174804688 187.736328125 235.462890625 212.62890625 235.71875 212.901367188 c 0
 241.842773438 219.43359375 250.532226562 223.509765625 260.166015625 223.509765625 c 0
 278.651367188 223.509765625 293.659179688 208.501953125 293.659179688 190.016601562 c 0
 293.659179688 181.165039062 290.217773438 173.110351562 284.599609375 167.098632812 c 0
 284.463867188 166.954101562 273.27734375 155.006835938 271.046875 152.633789062 c 1
 281.858398438 148.416015625 293.962890625 144.282226562 307.875976562 140.06640625 c 0
 321.63671875 135.896484375 331.6640625 123.107421875 331.6640625 107.993164062 c 0
 331.6640625 89.5009765625 316.650390625 74.4873046875 298.158203125 74.4873046875 c 0
 286.908203125 74.4873046875 243.331054688 90.34765625 218.09375 102.719726562 c 1
 210.2109375 96.578125 200.912109375 89.6982421875 188.8671875 80.9150390625 c 0
 183.276367188 76.84765625 176.46484375 74.466796875 169.1015625 74.466796875 c 0
 150.614257812 74.466796875 135.60546875 89.4755859375 135.60546875 107.962890625 c 0
 135.60546875 118.5859375 140.600585938 128.631835938 149.452148438 135.084960938 c 0
 152.4921875 137.302734375 155.30859375 139.353515625 157.927734375 141.262695312 c 1
 150.178710938 147.475585938 142.50390625 154.091796875 134.697265625 161.154296875 c 0
25 262.459960938 m 0
 25 289.305664062 52.8388671875 300.534179688 67.171875 300.534179688 c 0
 76.228515625 300.534179688 84.5576171875 296.883789062 90.6435546875 290.897460938 c 1
 98.32421875 290.548828125 108.297851562 290.27734375 120.640625 290.27734375 c 0
 211.575195312 290.27734375 381.522460938 300.5 384.16015625 300.5 c 0
 401.465820312 300.5 416.103515625 287.211914062 417.537109375 269.786132812 c 0
 430.99609375 110.6328125 449.314453125 38.3662109375 449.528320312 36.015625 c 0
 449.622070312 34.986328125 449.66796875 33.9638671875 449.66796875 32.94921875 c 0
 449.66796875 14.6767578125 434.8203125 -0.5341796875 416.104492188 -0.5341796875 c 0
 415.390625 -0.5341796875 414.680664062 -0.5107421875 413.9765625 -0.4658203125 c 2
 413.9765625 -0.4658203125 338.627929688 4.388671875 233.7890625 4.388671875 c 0
 132.103515625 4.388671875 61.888671875 -0.5 60.1513671875 -0.5 c 0
 42.3271484375 -0.5 27.4404296875 13.5595703125 26.68359375 31.5771484375 c 0
 26.6689453125 31.9287109375 25.6259765625 56.9677734375 25.6259765625 95.208984375 c 0
 25.6259765625 134.529296875 26.7138671875 187.756835938 31.2548828125 242.758789062 c 0
 27.8310546875 247.624023438 25 254.17578125 25 262.459960938 c 0
EndSplineSet
EndChar

StartChar: angleleft
Encoding: 36 9001 36
Width: 311
VWidth: 0
Flags: HW
HStem: -234 21G<225.5 242> 447 20G<246.5 262>
VStem: 222 64<408.74 463.791>
LayerCount: 2
Fore
SplineSet
253 467 m 0
 271 467 286 451 286 433 c 0
 286 428 285 424 283 420 c 0
 246 334 182 257 137 203 c 0
 117 179 102 159 94 146 c 1
 98 138 108 121 123 99 c 0
 201 -16 240 -94 265 -192 c 0
 266 -195 266 -197 266 -200 c 0
 266 -218 251 -234 233 -234 c 0
 218 -234 204 -223 200 -208 c 0
 169 -88 114 -5 73 55 c 0
 46 95 25 125 25 148 c 0
 25 173 56 210 94 256 c 0
 137 308 190 372 222 446 c 0
 227 458 240 467 253 467 c 0
EndSplineSet
EndChar

StartChar: angleright
Encoding: 37 9002 37
Width: 312
VWidth: 0
Flags: HW
HStem: -234 21G<70 86.5> 447 20G<50 65.5>
VStem: 25 65<408.382 463.515>
LayerCount: 2
Fore
SplineSet
59 467 m 0
 72 467 85 459 90 446 c 0
 123 370 177 305 220 253 c 0
 258 207 287 172 287 148 c 0
 287 126 267 97 240 57 c 0
 199 -3 141 -88 111 -208 c 0
 107 -224 94 -234 79 -234 c 0
 61 -234 45 -218 45 -200 c 0
 45 -196 45 -194 46 -192 c 0
 80 -59 147 39 188 99 c 0
 202 119 212 134 218 146 c 1
 208 162 190 182 170 207 c 0
 125 262 64 337 28 420 c 0
 26 424 25 428 25 433 c 0
 25 451 41 467 59 467 c 0
EndSplineSet
EndChar

StartChar: uni232B
Encoding: 38 9003 38
Width: 612
VWidth: 0
Flags: HW
LayerCount: 2
Fore
SplineSet
257.583984375 223.27734375 m 0
 236.905273438 223.27734375 222.421875 223.677734375 211.438476562 224.552734375 c 1
 182.876953125 199.564453125 129.3359375 168.17578125 102.58984375 147.10546875 c 1
 130.857421875 122.774414062 185.233398438 82.9462890625 207.049804688 67.1298828125 c 1
 263.888671875 70.265625 368.896484375 71.388671875 370.732421875 71.388671875 c 0
 428.918945312 71.3876953125 478.446289062 69.9189453125 511.495117188 68.580078125 c 1
 501.563476562 124.408203125 494.333984375 192.407226562 490.599609375 231.765625 c 1
 373.616210938 225.459960938 301.7890625 223.27734375 257.583984375 223.27734375 c 0
435.1015625 74.4873046875 m 0
 423.8515625 74.4873046875 380.275390625 90.34765625 355.038085938 102.719726562 c 1
 347.154296875 96.578125 337.856445312 89.6982421875 325.810546875 80.9150390625 c 0
 320.219726562 76.84765625 313.408203125 74.466796875 306.045898438 74.466796875 c 0
 287.55859375 74.466796875 272.548828125 89.4755859375 272.548828125 107.962890625 c 0
 272.548828125 119.086914062 277.983398438 128.952148438 286.395507812 135.084960938 c 0
 289.436523438 137.302734375 292.251953125 139.353515625 294.87109375 141.262695312 c 1
 287.123046875 147.475585938 279.447265625 154.091796875 271.640625 161.154296875 c 0
 264.873046875 167.294921875 260.61328125 176.15625 260.61328125 186.004882812 c 0
 260.61328125 204.490234375 275.62109375 219.498046875 294.107421875 219.498046875 c 0
 302.744140625 219.498046875 310.622070312 216.221679688 316.565429688 210.845703125 c 0
 327.458984375 200.989257812 337.29296875 192.7578125 347.076171875 185.572265625 c 0
 349.118164062 187.736328125 372.40625 212.62890625 372.662109375 212.901367188 c 0
 378.786132812 219.43359375 387.475585938 223.509765625 397.109375 223.509765625 c 0
 415.594726562 223.509765625 430.603515625 208.501953125 430.603515625 190.016601562 c 0
 430.603515625 181.165039062 427.162109375 173.110351562 421.54296875 167.098632812 c 0
 421.408203125 166.954101562 410.220703125 155.006835938 407.991210938 152.633789062 c 1
 418.802734375 148.416015625 430.907226562 144.282226562 444.8203125 140.06640625 c 0
 458.580078125 135.896484375 468.608398438 123.107421875 468.608398438 107.993164062 c 0
 468.608398438 89.5009765625 453.59375 74.4873046875 435.1015625 74.4873046875 c 0
370.732421875 4.388671875 m 0
 269.038085938 4.388671875 198.861328125 -0.4990234375 197.124023438 -0.4990234375 c 0
 190.17578125 -0.4990234375 183.360351562 1.654296875 177.692382812 5.671875 c 0
 169.127929688 11.744140625 67.9619140625 83.69921875 39.6826171875 114.448242188 c 0
 34.5693359375 120.0078125 25 130.412109375 25 146.6328125 c 0
 25 176.27734375 52.900390625 195.828125 111.446289062 234.963867188 c 0
 135.908203125 251.315429688 152.453125 262.594726562 163.153320312 271.54296875 c 1
 169.734375 295.658203125 196.927734375 300.5 204.059570312 300.5 c 0
 209.044921875 300.5 219.013671875 299.303710938 227.569335938 290.8984375 c 1
 235.251953125 290.548828125 245.231445312 290.27734375 257.583984375 290.27734375 c 0
 348.51953125 290.27734375 518.465820312 300.5 521.103515625 300.5 c 0
 538.41015625 300.5 553.046875 287.211914062 554.48046875 269.786132812 c 0
 567.940429688 110.6328125 586.2578125 38.3662109375 586.471679688 36.015625 c 0
 586.565429688 34.986328125 586.611328125 33.9638671875 586.611328125 32.94921875 c 0
 586.611328125 14.6767578125 571.764648438 -0.5341796875 553.047851562 -0.5341796875 c 0
 552.333984375 -0.5341796875 551.625 -0.5107421875 550.919921875 -0.4658203125 c 2
 550.919921875 -0.4658203125 475.571289062 4.388671875 370.732421875 4.388671875 c 0
EndSplineSet
EndChar

StartChar: uni232C
Encoding: 39 9004 39
Width: 463
VWidth: 0
Flags: HW
LayerCount: 2
Fore
SplineSet
231.495117188 310.401367188 m 1
 91.9951171875 230.572265625 l 1
 91.9951171875 69.330078125 l 1
 231.495117188 -11.3056640625 l 1
 370.995117188 69.330078125 l 1
 370.995117188 230.572265625 l 1
 231.495117188 310.401367188 l 1
183.995117188 94.5 m 2
 183.995117188 76.0107421875 168.984375 61 150.495117188 61 c 0
 132.005859375 61 116.995117188 76.0107421875 116.995117188 94.5 c 2
 116.995117188 204.5 l 2
 116.995117188 222.989257812 132.005859375 238 150.495117188 238 c 0
 168.984375 238 183.995117188 222.989257812 183.995117188 204.5 c 2
 183.995117188 94.5 l 2
320.516601562 140.646484375 m 0
 339.005859375 140.646484375 354.016601562 125.635742188 354.016601562 107.146484375 c 0
 354.016601562 94.83984375 347.366210938 84.07421875 337.393554688 78.2080078125 c 0
 337.249023438 78.1220703125 252.259765625 26.7177734375 251.393554688 26.2080078125 c 0
 246.419921875 23.2822265625 240.626953125 21.603515625 234.444335938 21.603515625 c 0
 215.955078125 21.603515625 200.944335938 36.615234375 200.944335938 55.1044921875 c 0
 200.944335938 67.4111328125 207.594726562 78.1767578125 217.495117188 84 c 0
 226.618164062 89.3662109375 293.651367188 130.208984375 303.495117188 136 c 0
 308.540039062 138.967773438 314.333984375 140.646484375 320.516601562 140.646484375 c 0
193.973632812 236.048828125 m 0
 193.973632812 254.5390625 208.986328125 269.551757812 227.4765625 269.551757812 c 0
 236.287109375 269.551757812 236.362304688 269.512695312 283.899414062 244.79296875 c 0
 296.404296875 238.291015625 308.677734375 231.909179688 324.495117188 224 c 0
 335.490234375 218.501953125 343.047851562 207.133789062 343.047851562 194.014648438 c 0
 343.047851562 175.5234375 328.03515625 160.51171875 309.544921875 160.51171875 c 0
 300.744140625 160.51171875 300.622070312 160.575195312 253.056640625 185.30859375 c 0
 240.551757812 191.811523438 228.279296875 198.193359375 212.461914062 206.1015625 c 0
 201.53125 211.560546875 193.973632812 222.928710938 193.973632812 236.048828125 c 0
231.466796875 382.518554688 m 0
 235.42578125 382.518554688 241.662109375 381.782226562 248.090820312 378.103515625 c 2
 421.098632812 279.096679688 l 2
 431.508789062 273.139648438 437.990234375 261.978515625 437.990234375 250.008789062 c 0
 437.995117188 50 437.995117188 50 437.995117188 50 c 2
 437.995117188 38.08203125 431.569335938 26.9599609375 421.228515625 20.9833984375 c 2
 248.224609375 -79.0244140625 l 2
 243.02734375 -82.0283203125 237.272460938 -83.48828125 231.555664062 -83.48828125 c 0
 225.706054688 -83.48828125 219.896484375 -81.9599609375 214.768554688 -78.9951171875 c 2
 41.7666015625 20.9755859375 l 2
 31.42578125 26.9521484375 25 38.07421875 25 49.9921875 c 2
 25 250 l 2
 25 261.969726562 31.4765625 273.130859375 41.892578125 279.096679688 c 2
 214.892578125 378.096679688 l 2
 219.857421875 380.9375 225.553710938 382.518554688 231.466796875 382.518554688 c 0
EndSplineSet
EndChar

StartChar: uni237B
Encoding: 40 9083 40
Width: 472
VWidth: 0
Flags: HW
LayerCount: 2
Fore
SplineSet
360.53515625 297.86328125 m 1
 361.064453125 297.900390625 398.98046875 300.500976562 413.517578125 300.500976562 c 0
 432.006835938 300.500976562 447.017578125 285.490234375 447.017578125 267.000976562 c 0
 447.017578125 248.791992188 432.459960938 233.958007812 414.330078125 233.510742188 c 0
 390.447265625 232.920898438 370.397460938 231.428710938 350.90625 229.97265625 c 0
 342.005859375 229.307617188 333.201171875 228.645507812 324.260742188 228.100585938 c 1
 265.69921875 112.529296875 234.357421875 35.087890625 215.708984375 -10.9345703125 c 0
 200.422851562 -48.6611328125 195.438476562 -60.9619140625 186.477539062 -70.71484375 c 0
 182.763671875 -74.7578125 174.060546875 -83.5 158.489257812 -83.5 c 0
 100.850585938 -83.5 114.124023438 9.40234375 35.6533203125 82.498046875 c 0
 29.109375 88.611328125 25 97.33203125 25 107.004882812 c 0
 25 125.490234375 40.0078125 140.498046875 58.4931640625 140.498046875 c 0
 67.306640625 140.498046875 75.3291015625 137.086914062 81.3115234375 131.513671875 c 0
 120.493164062 95.0166015625 142.54296875 53.58984375 156.693359375 21.8505859375 c 1
 174.127929688 64.7998046875 202.1328125 132.62109375 249.354492188 228.112304688 c 1
 234.115234375 229.205078125 217.62109375 231.049804688 199.307617188 233.899414062 c 0
 183.208007812 236.395507812 170.919921875 250.27734375 170.919921875 267.005859375 c 0
 170.919921875 285.497070312 185.932617188 300.509765625 204.424804688 300.509765625 c 0
 211.639648438 300.509765625 239.883789062 294.08203125 282.692382812 293.817382812 c 1
 294.22265625 315.99609375 306.6484375 339.376953125 320.0859375 364.055664062 c 0
 325.765625 374.487304688 336.826171875 381.572265625 349.529296875 381.572265625 c 0
 368.01953125 381.572265625 383.03125 366.560546875 383.03125 348.071289062 c 0
 383.03125 342.284179688 381.560546875 336.837890625 378.931640625 332.015625 c 0
 372.576171875 320.342773438 366.446289062 308.959960938 360.53515625 297.86328125 c 1
EndSplineSet
EndChar

StartChar: uni237D
Encoding: 41 9085 41
Width: 625
VWidth: 0
Flags: HW
LayerCount: 2
Fore
SplineSet
171.596679688 40.1533203125 m 0
 171.596679688 61.0302734375 178.676757812 78.4228515625 184.76953125 112.30859375 c 1
 164.587890625 114.079101562 137.686523438 115.75 57.3642578125 118.520507812 c 0
 39.3798828125 119.139648438 25 133.904296875 25 152.000976562 c 0
 25 170.490234375 40.0107421875 185.500976562 58.5 185.500976562 c 0
 60.1083984375 185.500976562 188.412109375 182.56640625 218.954101562 175.065429688 c 0
 236.474609375 170.76171875 253.791015625 158.604492188 253.791015625 127.360351562 c 0
 253.791015625 112.836914062 253.791015625 112.836914062 243.638671875 66.5 c 1
 375.91796875 66.5 l 1
 375.447265625 71.001953125 374.908203125 75.8408203125 374.337890625 80.7666015625 c 0
 372.303710938 98.361328125 369.944335938 117.44140625 369.944335938 134.647460938 c 0
 369.944335938 179.8125 389.694335938 195.453125 447.51953125 195.453125 c 0
 471.111328125 195.453125 471.111328125 195.453125 569.649414062 186.357421875 c 0
 586.682617188 184.78515625 600.0390625 170.438476562 600.0390625 152.998046875 c 0
 600.0390625 134.5078125 585.02734375 119.49609375 566.537109375 119.49609375 c 0
 558.658203125 119.49609375 484.967773438 128.453125 447.51953125 128.453125 c 0
 443.715820312 128.453125 440.206054688 128.3203125 437.126953125 128.123046875 c 0
 438.456054688 101.181640625 444.59765625 67.2802734375 444.59765625 44.83203125 c 0
 444.59765625 1.1767578125 412.47265625 -0.5 407.537109375 -0.5 c 2
 208.537109375 -0.5 l 2
 193.165039062 -0.5 171.596679688 10.5771484375 171.596679688 40.1533203125 c 0
EndSplineSet
EndChar

StartChar: uni237E
Encoding: 42 9086 42
Width: 575
VWidth: 0
Flags: HW
LayerCount: 2
Fore
SplineSet
307.272460938 315.568359375 m 0
 248.6328125 315.568359375 137.711914062 283.989257812 137.711914062 208.490234375 c 0
 137.711914062 199.299804688 139.30078125 188.72265625 143.284179688 176.6484375 c 1
 193.419921875 170.967773438 284.588867188 168.375 353.673828125 168.375 c 0
 403.565429688 168.375 450.916992188 170.275390625 474.75390625 172.911132812 c 0
 474.7578125 173.211914062 474.759765625 173.513671875 474.759765625 173.815429688 c 0
 474.759765625 237.576171875 389.22265625 315.568359375 307.272460938 315.568359375 c 0
350.049804688 -29.669921875 m 0
 350.049804688 -13.1650390625 356.151367188 100.065429688 356.204101562 101.375976562 c 1
 355.362304688 101.375976562 354.518554688 101.375 353.673828125 101.375 c 0
 318.293945312 101.375 281.103515625 102.028320312 246.793945312 103.1640625 c 1
 241.85546875 46.666015625 235.393554688 -9.5087890625 230.80859375 -46.189453125 c 0
 230.189453125 -51.14453125 226.780273438 -67.138671875 208.319335938 -74.7548828125 c 0
 184.264648438 -84.6787109375 117.999023438 -78.0439453125 61.681640625 -83.357421875 c 0
 60.634765625 -83.4560546875 59.57421875 -83.505859375 58.501953125 -83.505859375 c 0
 40.01171875 -83.505859375 25 -68.494140625 25 -50.00390625 c 0
 25 -32.5869140625 38.3212890625 -18.255859375 55.388671875 -16.6494140625 c 0
 95.1953125 -12.8935546875 114.770507812 -14.8974609375 167.333007812 -13.1298828125 c 1
 171.317382812 20.4453125 176.008789062 63.341796875 179.802734375 106.25 c 1
 116.2578125 110.20703125 105.438476562 114.162109375 95.767578125 123.359375 c 0
 93.3671875 125.641601562 90.369140625 129.033203125 88.015625 134.251953125 c 0
 76.48046875 159.8203125 70.7119140625 184.647460938 70.7119140625 208.490234375 c 0
 70.7119140625 326.678710938 208.859375 382.568359375 307.272460938 382.568359375 c 0
 425.01171875 382.568359375 541.759765625 277.314453125 541.759765625 173.815429688 c 0
 541.759765625 161.766601562 540.17578125 149.658203125 536.78515625 137.791015625 c 0
 529.20703125 111.267578125 504.615234375 105.09765625 423.303710938 102.389648438 c 1
 423.122070312 97.640625 417.365234375 -15.513671875 417.32421875 -16.705078125 c 1
 443.116210938 -16.1904296875 503.310546875 -9.4970703125 516.620117188 -9.4970703125 c 0
 535.109375 -9.4970703125 550.12109375 -24.5087890625 550.12109375 -42.998046875 c 0
 550.12109375 -60.8671875 536.100585938 -75.486328125 518.418945312 -76.44921875 c 0
 483.015625 -78.380859375 443.674804688 -83.744140625 413.623046875 -83.744140625 c 0
 394.650390625 -83.744140625 354.05859375 -82.796875 350.4765625 -41.91015625 c 0
 350.124023438 -37.884765625 350.049804688 -34.05078125 350.049804688 -29.669921875 c 0
EndSplineSet
EndChar

StartChar: uni237F
Encoding: 43 9087 43
Width: 219
VWidth: 0
Flags: HW
HStem: 180 67<-48.9195 -16.47>
VStem: -118 67<123.661 171> -16 67<130.012 178.73>
LayerCount: 2
Fore
SplineSet
68.4912109375 348.999023438 m 0
 68.4912109375 367.491210938 83.50390625 382.50390625 101.995117188 382.50390625 c 0
 118.491210938 382.50390625 132.217773438 370.557617188 134.989257812 354.8515625 c 0
 141.915039062 315.608398438 144.875 276.482421875 145.541015625 236.588867188 c 1
 174.137695312 221.426757812 194 191.409179688 194 158 c 0
 194 124.764648438 170.141601562 89.7626953125 139.750976562 70.0263671875 c 1
 137.590820312 34.55859375 135.247070312 -4.357421875 133.475585938 -51.283203125 c 0
 132.80078125 -69.1787109375 118.059570312 -83.5 100 -83.5 c 0
 81.509765625 -83.5 66.4990234375 -68.4892578125 66.4990234375 -50 c 0
 66.4990234375 -49.5703125 66.5068359375 -49.142578125 66.5224609375 -48.7568359375 c 2
 66.5224609375 -48.716796875 l 2
 67.931640625 -11.3798828125 69.935546875 23.7578125 71.9052734375 57.0869140625 c 1
 42.373046875 67.28125 25 102.149414062 25 153 c 0
 25 199.891601562 45.2626953125 232.404296875 78.390625 243.13671875 c 1
 77.53125 277.61328125 74.751953125 310.610351562 69 343.20703125 c 0
 68.666015625 345.046875 68.4912109375 347.002929688 68.4912109375 348.999023438 c 0
EndSplineSet
EndChar

StartChar: uni238D
Encoding: 44 9101 44
Width: 525
VWidth: 0
Flags: HW
LayerCount: 2
Fore
SplineSet
216.322265625 195.932617188 m 0
 216.322265625 195.231445312 216.745117188 133.81640625 216.745117188 125.853515625 c 0
 216.745117188 101.234375 216.391601562 73.681640625 215.030273438 43.4697265625 c 0
 214.815429688 38.6806640625 212.03515625 9.634765625 176.376953125 2.005859375 c 0
 155.323242188 -2.4990234375 127.673828125 0.9462890625 92.4033203125 5.447265625 c 0
 79.21484375 7.130859375 66.44921875 8.7431640625 55.8076171875 9.6123046875 c 0
 38.5419921875 11.0185546875 25 25.4423828125 25 43.00390625 c 0
 25 61.4931640625 40.01171875 76.5048828125 58.501953125 76.5048828125 c 0
 70.7353515625 76.5048828125 124.154296875 67.970703125 148.883789062 67.033203125 c 1
 149.546875 88.0576171875 149.745117188 107.676757812 149.745117188 125.853515625 c 0
 149.745117188 152.412109375 149.322265625 175.759765625 149.322265625 195.932617188 c 0
 149.322265625 277.280273438 157.227539062 294.084960938 201.280273438 298.985351562 c 0
 215.473632812 300.564453125 233.211914062 301.090820312 252.216796875 301.090820312 c 0
 258.950195312 301.090820312 327.859375 300.91796875 352.22265625 294.098632812 c 0
 355.329101562 293.229492188 359.087890625 292.905273438 366.513671875 287.189453125 c 0
 369.987304688 284.515625 377.55078125 278.139648438 379.626953125 265.4296875 c 0
 384.508789062 235.524414062 388.422851562 201.513671875 388.422851562 154.129882812 c 0
 388.422851562 129.4765625 387.395507812 101.174804688 385 67.6181640625 c 1
 443.21484375 69.5908203125 465.810546875 71.5048828125 466.627929688 71.5048828125 c 0
 485.118164062 71.5048828125 500.12890625 56.4931640625 500.12890625 38.00390625 c 0
 500.12890625 20.4111328125 486.540039062 5.96875 469.233398438 4.6044921875 c 0
 429.59765625 1.4755859375 349.802734375 -0.5263671875 348.595703125 -0.5263671875 c 0
 329.984375 -0.5263671875 315.064453125 14.5966796875 315.064453125 32.984375 c 0
 315.064453125 34.197265625 321.422851562 99.4306640625 321.422851562 154.129882812 c 0
 321.422851562 186.068359375 319.609375 210.146484375 316.879882812 231.551757812 c 1
 300.0234375 232.896484375 274.5234375 234.090820312 252.216796875 234.090820312 c 0
 239.33203125 234.090820312 226.798828125 233.680664062 217.372070312 233.072265625 c 1
 216.608398438 223.639648438 216.322265625 211.013671875 216.322265625 195.932617188 c 0
EndSplineSet
EndChar

StartChar: uni238E
Encoding: 45 9102 45
Width: 496
VWidth: 0
Flags: HW
LayerCount: 2
Fore
SplineSet
205.309570312 72.3671875 m 1
 262.514648438 70.73828125 262.514648438 70.73828125 275.306640625 70.59375 c 1
 297.015625 132.923828125 301.904296875 151.219726562 301.904296875 196.375976562 c 0
 301.904296875 206.924804688 301.565429688 219.013671875 300.96875 233.28515625 c 1
 295.020507812 233.565429688 289.19140625 233.723632812 283.459960938 233.723632812 c 0
 259.059570312 233.723632812 236.306640625 231.078125 211.885742188 222.766601562 c 1
 210.712890625 212.892578125 210.3125 203.487304688 210.3125 194.057617188 c 0
 210.3125 193.44140625 212.239257812 134.2734375 212.239257812 132.426757812 c 0
 212.239257812 114.055664062 210.657226562 94.064453125 205.309570312 72.3671875 c 1
145.239257812 132.426757812 m 0
 145.239257812 151.633789062 143.3125 171.56640625 143.3125 194.057617188 c 0
 143.3125 211.372070312 144.490234375 230.502929688 148.63671875 251.512695312 c 0
 150.418945312 260.576171875 155.836914062 268.322265625 163.298828125 273.171875 c 0
 166.296875 276.049804688 169.826171875 278.37109375 173.76953125 279.991210938 c 0
 212.279296875 295.848632812 248.749023438 300.723632812 283.459960938 300.723632812 c 0
 334.139648438 300.723632812 380.8125 291.0859375 437.854492188 290.498046875 c 0
 456.1953125 290.309570312 471.015625 275.372070312 471.015625 257 c 0
 471.015625 238.510742188 456.004882812 223.5 437.515625 223.5 c 0
 433.29296875 223.5 411.295898438 223.5 368.251953125 227.541015625 c 1
 368.666015625 216.228515625 368.904296875 205.984375 368.904296875 196.375976562 c 0
 368.904296875 138.973632812 358.883789062 106.411132812 333.119140625 32.9052734375 c 0
 330.086914062 24.255859375 323.606445312 17.2236328125 315.329101562 13.4599609375 c 0
 309.25390625 7.3115234375 300.8203125 3.5 291.502929688 3.5 c 0
 281.38671875 3.5 162.219726562 6.1123046875 160.9140625 6.1123046875 c 0
 104.416992188 6.1123046875 59.529296875 -0.5068359375 58.5029296875 -0.5068359375 c 0
 40.0126953125 -0.5068359375 25 14.505859375 25 32.9970703125 c 0
 25 49.974609375 37.65625 64.0205078125 54.041015625 66.205078125 c 0
 83.953125 70.193359375 110.600585938 72.0712890625 135.633789062 72.7705078125 c 1
 143.55078125 94.736328125 144.744140625 129.352539062 145.239257812 132.426757812 c 0
EndSplineSet
EndChar

StartChar: uni238F
Encoding: 46 9103 46
Width: 340
VWidth: 0
Flags: HW
LayerCount: 2
Fore
SplineSet
159.217773438 104.490234375 m 1
 178.896484375 133.595703125 202.31640625 154.015625 228.65234375 176.376953125 c 1
 216.239257812 194.221679688 204.521484375 209.081054688 192.46484375 222.625976562 c 1
 156.071289062 191.161132812 131.669921875 169.543945312 115.434570312 154.213867188 c 1
 133.78125 137.12109375 148.138671875 119.993164062 159.217773438 104.490234375 c 1
58.5 376.5 m 0
 215.668945312 376.5 279.325195312 382.50390625 281.555664062 382.50390625 c 0
 300.045898438 382.50390625 315.057617188 367.4921875 315.057617188 349.002929688 c 0
 315.057617188 331.233398438 301.192382812 316.67578125 283.64453125 315.567382812 c 0
 203.864257812 310.518554688 144.700195312 309.5 58.5 309.5 c 0
 40.0107421875 309.5 25 324.510742188 25 343 c 0
 25 361.489257812 40.0107421875 376.5 58.5 376.5 c 0
160.509765625 -0.4560546875 m 0
 145.810546875 -0.4560546875 133.19140625 9.01953125 128.727539062 22.412109375 c 0
 127.163085938 27.939453125 106.110351562 79.3125 48.2470703125 123.3203125 c 0
 38.3388671875 130.856445312 34.60546875 143.068359375 34.60546875 150.896484375 c 0
 34.60546875 172.412109375 47.9501953125 186.234375 148.176757812 272.888671875 c 0
 156.547851562 280.126953125 164.1953125 286.739257812 170.45703125 292.217773438 c 0
 177.892578125 298.723632812 186.983398438 300.755859375 193.267578125 300.755859375 c 0
 208.342773438 300.755859375 220.809570312 294.442382812 255.729492188 251.72265625 c 0
 268.838867188 235.685546875 296.1875 200.840820312 302.333007812 181.98828125 c 0
 303.264648438 179.129882812 304.442382812 175.6640625 304.442382812 169.263671875 c 0
 304.442382812 163.861328125 303.274414062 151.977539062 292.283203125 142.556640625 c 0
 287.315429688 138.298828125 282.567382812 134.26953125 278.038085938 130.426757812 c 0
 232.592773438 91.86328125 211.169921875 72.951171875 191.8984375 21.302734375 c 0
 191.18359375 19.38671875 183.23046875 -0.4560546875 160.509765625 -0.4560546875 c 0
EndSplineSet
EndChar

StartChar: uni2390
Encoding: 47 9104 47
Width: 340
VWidth: 0
Flags: HW
LayerCount: 2
Fore
SplineSet
150.217773438 104.490234375 m 1
 169.896484375 133.595703125 193.31640625 154.015625 219.65234375 176.376953125 c 1
 207.239257812 194.221679688 195.521484375 209.081054688 183.46484375 222.625976562 c 1
 147.071289062 191.161132812 122.669921875 169.543945312 106.434570312 154.213867188 c 1
 124.78125 137.12109375 139.138671875 119.993164062 150.217773438 104.490234375 c 1
58.5 -16 m 0
 215.668945312 -16 279.325195312 -9.99609375 281.555664062 -9.99609375 c 0
 300.045898438 -9.99609375 315.057617188 -25.0078125 315.057617188 -43.4970703125 c 0
 315.057617188 -61.2666015625 301.192382812 -75.82421875 283.64453125 -76.9326171875 c 0
 203.864257812 -81.9814453125 144.700195312 -83 58.5 -83 c 0
 40.0107421875 -83 25 -67.9892578125 25 -49.5 c 0
 25 -31.0107421875 40.0107421875 -16 58.5 -16 c 0
151.509765625 -0.4560546875 m 0
 136.810546875 -0.4560546875 124.19140625 9.01953125 119.727539062 22.412109375 c 0
 118.163085938 27.939453125 97.1103515625 79.3125 39.2470703125 123.3203125 c 0
 29.3388671875 130.856445312 25.60546875 143.068359375 25.60546875 150.896484375 c 0
 25.60546875 172.412109375 38.9501953125 186.234375 139.176757812 272.888671875 c 0
 147.547851562 280.126953125 155.1953125 286.739257812 161.45703125 292.217773438 c 0
 168.892578125 298.723632812 177.983398438 300.755859375 184.267578125 300.755859375 c 0
 199.342773438 300.755859375 211.809570312 294.442382812 246.729492188 251.72265625 c 0
 259.838867188 235.685546875 287.1875 200.840820312 293.333007812 181.98828125 c 0
 294.264648438 179.129882812 295.442382812 175.6640625 295.442382812 169.263671875 c 0
 295.442382812 163.861328125 294.274414062 151.977539062 283.283203125 142.556640625 c 0
 278.315429688 138.298828125 273.567382812 134.26953125 269.038085938 130.426757812 c 0
 223.592773438 91.86328125 202.169921875 72.951171875 182.8984375 21.302734375 c 0
 182.18359375 19.38671875 174.23046875 -0.4560546875 151.509765625 -0.4560546875 c 0
EndSplineSet
EndChar

StartChar: uni2391
Encoding: 48 9105 48
Width: 340
VWidth: 0
Flags: HW
LayerCount: 2
Fore
SplineSet
213.352539062 197.330078125 m 1
 209.596679688 202.237304688 202.834960938 210.975585938 192.46484375 222.625976562 c 1
 180.07421875 211.913085938 165.565429688 199.323242188 151.423828125 186.826171875 c 1
 171.931640625 189.370117188 191.709960938 192.819335938 213.352539062 197.330078125 c 1
159.217773438 104.490234375 m 1
 163.549804688 110.8984375 167.897460938 116.650390625 172.411132812 122.142578125 c 1
 164.405273438 121.00390625 156.345703125 119.989257812 148.134765625 119.094726562 c 1
 152.1484375 114.107421875 155.8359375 109.22265625 159.217773438 104.490234375 c 1
58.5 376.5 m 0
 215.668945312 376.5 279.325195312 382.50390625 281.555664062 382.50390625 c 0
 300.045898438 382.50390625 315.057617188 367.4921875 315.057617188 349.002929688 c 0
 315.057617188 331.233398438 301.192382812 316.67578125 283.64453125 315.567382812 c 0
 203.864257812 310.518554688 144.700195312 309.5 58.5 309.5 c 0
 40.0107421875 309.5 25 324.510742188 25 343 c 0
 25 361.489257812 40.0107421875 376.5 58.5 376.5 c 0
160.509765625 -0.4560546875 m 0
 145.810546875 -0.4560546875 133.19140625 9.01953125 128.727539062 22.412109375 c 0
 127.163085938 27.939453125 106.110351562 79.3125 48.2470703125 123.3203125 c 0
 38.3388671875 130.856445312 34.60546875 143.068359375 34.60546875 150.896484375 c 0
 34.60546875 172.412109375 47.9501953125 186.234375 148.176757812 272.888671875 c 0
 156.547851562 280.126953125 164.1953125 286.739257812 170.45703125 292.217773438 c 0
 177.892578125 298.723632812 186.983398438 300.755859375 193.267578125 300.755859375 c 0
 208.342773438 300.755859375 220.809570312 294.442382812 255.729492188 251.72265625 c 0
 268.838867188 235.685546875 296.1875 200.840820312 302.333007812 181.98828125 c 0
 303.264648438 179.129882812 304.442382812 175.6640625 304.442382812 169.263671875 c 0
 304.442382812 163.861328125 303.274414062 151.977539062 292.283203125 142.556640625 c 0
 287.315429688 138.298828125 282.567382812 134.26953125 278.038085938 130.426757812 c 0
 232.592773438 91.86328125 211.169921875 72.951171875 191.8984375 21.302734375 c 0
 191.18359375 19.38671875 183.23046875 -0.4560546875 160.509765625 -0.4560546875 c 0
EndSplineSet
EndChar

StartChar: uni2392
Encoding: 49 9106 49
Width: 340
VWidth: 0
Flags: HW
LayerCount: 2
Fore
SplineSet
205.352539062 197.330078125 m 1
 201.596679688 202.237304688 194.834960938 210.975585938 184.46484375 222.625976562 c 1
 172.07421875 211.913085938 157.565429688 199.323242188 143.423828125 186.826171875 c 1
 163.931640625 189.370117188 183.709960938 192.819335938 205.352539062 197.330078125 c 1
151.217773438 104.490234375 m 1
 155.549804688 110.8984375 159.897460938 116.650390625 164.411132812 122.142578125 c 1
 156.405273438 121.00390625 148.345703125 119.989257812 140.134765625 119.094726562 c 1
 144.1484375 114.107421875 147.8359375 109.22265625 151.217773438 104.490234375 c 1
58.5 -16 m 0
 215.668945312 -16 279.325195312 -9.99609375 281.555664062 -9.99609375 c 0
 300.045898438 -9.99609375 315.057617188 -25.0078125 315.057617188 -43.4970703125 c 0
 315.057617188 -61.2666015625 301.192382812 -75.82421875 283.64453125 -76.9326171875 c 0
 203.864257812 -81.9814453125 144.700195312 -83 58.5 -83 c 0
 40.0107421875 -83 25 -67.9892578125 25 -49.5 c 0
 25 -31.0107421875 40.0107421875 -16 58.5 -16 c 0
152.509765625 -0.4560546875 m 0
 137.810546875 -0.4560546875 125.19140625 9.01953125 120.727539062 22.412109375 c 0
 119.163085938 27.939453125 98.1103515625 79.3125 40.2470703125 123.3203125 c 0
 30.3388671875 130.856445312 26.60546875 143.068359375 26.60546875 150.896484375 c 0
 26.60546875 172.412109375 39.9501953125 186.234375 140.176757812 272.888671875 c 0
 148.547851562 280.126953125 156.1953125 286.739257812 162.45703125 292.217773438 c 0
 169.892578125 298.723632812 178.983398438 300.755859375 185.267578125 300.755859375 c 0
 200.342773438 300.755859375 212.809570312 294.442382812 247.729492188 251.72265625 c 0
 260.838867188 235.685546875 288.1875 200.840820312 294.333007812 181.98828125 c 0
 295.264648438 179.129882812 296.442382812 175.6640625 296.442382812 169.263671875 c 0
 296.442382812 163.861328125 295.274414062 151.977539062 284.283203125 142.556640625 c 0
 279.315429688 138.298828125 274.567382812 134.26953125 270.038085938 130.426757812 c 0
 224.592773438 91.86328125 203.169921875 72.951171875 183.8984375 21.302734375 c 0
 183.18359375 19.38671875 175.23046875 -0.4560546875 152.509765625 -0.4560546875 c 0
EndSplineSet
EndChar

StartChar: uni2393
Encoding: 50 9107 50
Width: 574
VWidth: 0
Flags: HW
LayerCount: 2
Fore
SplineSet
437.067382812 78.4990234375 m 0
 418.578125 78.4990234375 403.56640625 93.509765625 403.56640625 112 c 0
 403.56640625 129.731445312 417.37109375 144.263671875 434.810546875 145.42578125 c 0
 435.8046875 145.4921875 509.96484375 152.50390625 512.624023438 152.50390625 c 0
 531.114257812 152.50390625 546.125 137.4921875 546.125 119.002929688 c 0
 546.125 101.271484375 532.3203125 86.7412109375 514.823242188 85.5751953125 c 0
 483.287109375 83.47265625 446.387695312 78.4990234375 437.067382812 78.4990234375 c 0
251.56640625 66.49609375 m 0
 233.076171875 66.49609375 218.064453125 81.5078125 218.064453125 99.998046875 c 0
 218.064453125 117.388671875 231.342773438 131.701171875 248.305664062 133.342773438 c 0
 249.197265625 133.4296875 335.413085938 140.506835938 337.633789062 140.506835938 c 0
 356.124023438 140.506835938 371.135742188 125.495117188 371.135742188 107.004882812 c 0
 371.135742188 89.6142578125 357.856445312 75.30078125 340.827148438 73.6572265625 c 0
 339.935546875 73.5703125 253.725585938 66.49609375 251.56640625 66.49609375 c 0
132.71484375 53.2236328125 m 0
 132.341796875 53.2236328125 96.6572265625 52.7763671875 95.41796875 52.7763671875 c 0
 87.0732421875 52.7763671875 78.1513671875 52.9599609375 68.44921875 53.56640625 c 0
 50.888671875 54.6611328125 37.009765625 69.2236328125 37.009765625 87.0029296875 c 0
 37.009765625 105.4921875 52.0205078125 120.50390625 70.5107421875 120.50390625 c 0
 70.759765625 120.50390625 82.427734375 119.776367188 95.41796875 119.776367188 c 0
 95.7900390625 119.776367188 131.475585938 120.223632812 132.71484375 120.223632812 c 0
 141.059570312 120.223632812 149.981445312 120.040039062 159.68359375 119.43359375 c 0
 177.188476562 118.33984375 191.067382812 103.77734375 191.067382812 85.9990234375 c 0
 191.067382812 67.509765625 176.055664062 52.498046875 157.56640625 52.498046875 c 0
 157.317382812 52.498046875 145.739257812 53.2236328125 132.71484375 53.2236328125 c 0
490.673828125 187.821289062 m 0
 377.481445312 187.821289062 274.163085938 167.740234375 148.540039062 167.740234375 c 0
 118.939453125 167.740234375 88.1005859375 168.859375 55.689453125 171.622070312 c 0
 38.4794921875 173.0859375 25 187.483398438 25 205.00390625 c 0
 25 223.494140625 40.01171875 238.505859375 58.501953125 238.505859375 c 0
 63.1201171875 238.505859375 95.919921875 234.740234375 148.540039062 234.740234375 c 0
 270.177734375 234.740234375 373.049804688 254.821289062 490.673828125 254.821289062 c 0
 499.186523438 254.821289062 507.778320312 254.71484375 516.45703125 254.48828125 c 0
 534.53515625 254.015625 549.06640625 239.19140625 549.06640625 221 c 0
 549.06640625 202.510742188 534.055664062 187.5 515.56640625 187.5 c 0
 514.26171875 187.5 505.055664062 187.821289062 490.673828125 187.821289062 c 0
EndSplineSet
EndChar

StartChar: uni2394
Encoding: 51 9108 51
Width: 517
VWidth: 0
Flags: HW
LayerCount: 2
Fore
SplineSet
142.03125 351 m 0
 145.03125 353 152.03125 356 159.03125 356 c 2
 358.03125 357 l 2
 370.03125 357 381.03125 350 387.03125 340 c 0
 487.03125 167 487.03125 167 487.03125 167 c 2
 493.03125 157 493.03125 143 487.03125 133 c 2
 387.03125 -40 l 2
 384.03125 -45 380.03125 -49 375.03125 -52 c 0
 370.03125 -55 364.03125 -57 358.03125 -57 c 2
 158.03125 -57 l 2
 146.03125 -57 135.03125 -50 129.03125 -40 c 2
 29.03125 133 l 2
 23.03125 143 24.03125 157 30.03125 167 c 2
 130.03125 339 l 2
 133.03125 344 137.03125 348 142.03125 351 c 0
178.03125 289 m 1
 97.03125 150 l 1
 178.03125 10 l 1
 339.03125 10 l 1
 419.03125 150 l 1
 339.03125 289 l 1
 178.03125 289 l 1
EndSplineSet
EndChar
